<svg width="464" height="139" viewBox="0 0 464 139" fill="none" xmlns="http://www.w3.org/2000/svg">
<path d="M82.6445 121.57V125.637C82.6445 128.832 80.3205 131.592 77.1251 132.028L76.1084 135.659C75.5275 137.692 73.7845 139 71.7511 139H61.8744C59.841 139 57.9528 137.547 57.5171 135.659L56.5003 131.883C53.4502 131.447 50.981 128.687 50.981 125.492V121.425C50.981 119.246 52.724 117.503 54.9026 117.503H78.7228C80.9015 117.649 82.6445 119.391 82.6445 121.57ZM66.8127 21.351C68.9914 21.351 70.7344 19.6081 70.7344 17.4294V3.92162C70.7344 1.74294 68.9914 0 66.8127 0C64.6341 0 62.8911 1.74294 62.8911 3.92162V17.4294C62.8911 19.6081 64.6341 21.351 66.8127 21.351ZM21.351 66.8128C21.351 64.6341 19.6081 62.8911 17.4294 62.8911H3.92162C1.74294 62.8911 0 64.6341 0 66.8128C0 68.9914 1.74294 70.7344 3.92162 70.7344H17.4294C19.6081 70.5891 21.351 68.8462 21.351 66.8128ZM129.704 62.8911H116.196C114.017 62.8911 112.274 64.6341 112.274 66.8128C112.274 68.9914 114.017 70.7344 116.196 70.7344H129.704C131.883 70.7344 133.625 68.9914 133.625 66.8128C133.625 64.6341 131.737 62.8911 129.704 62.8911ZM29.1943 98.9119L19.6081 108.498C18.1556 109.951 18.1556 112.42 19.6081 114.017C20.3343 114.744 21.351 115.179 22.3677 115.179C23.3845 115.179 24.4012 114.744 25.1274 114.017L34.7136 104.431C36.166 102.979 36.166 100.51 34.7136 98.9119C33.1159 97.4595 30.792 97.4595 29.1943 98.9119ZM101.672 35.7303C102.688 35.7303 103.705 35.2946 104.431 34.5683L114.017 24.9822C115.47 23.5297 115.47 21.0605 114.017 19.4628C112.565 18.0104 110.096 18.0104 108.498 19.4628L98.9119 29.049C97.4595 30.5015 97.4595 32.9706 98.9119 34.5683C99.6381 35.4398 100.655 35.7303 101.672 35.7303ZM29.1943 34.7136C29.9205 35.4398 30.9372 35.8755 31.9539 35.8755C32.9706 35.8755 33.9874 35.4398 34.7136 34.7136C36.166 33.2611 36.166 30.792 34.7136 29.1943L25.1274 19.6081C23.675 18.1556 21.2058 18.1556 19.6081 19.6081C18.1556 21.0605 18.1556 23.5297 19.6081 25.1274L29.1943 34.7136ZM104.431 98.9119C102.979 97.4595 100.51 97.4595 98.9119 98.9119C97.4595 100.364 97.4595 102.834 98.9119 104.431L108.498 114.017C109.224 114.744 110.241 115.179 111.258 115.179C112.274 115.179 113.291 114.744 114.017 114.017C115.47 112.565 115.47 110.096 114.017 108.498L104.431 98.9119ZM66.5223 32.5349C47.4951 32.6801 32.3897 48.0761 32.5349 67.1032C32.6801 76.1084 36.3113 84.3874 42.1211 90.4877C46.6237 95.1355 49.5286 101.236 50.5453 107.627C50.981 110.386 53.3049 112.42 56.0646 112.42H77.2704C80.0301 112.42 82.4992 110.386 82.9349 107.627C83.9517 101.236 86.8566 95.2808 91.3592 90.6329C97.3142 84.5327 100.945 76.1084 100.945 66.8128C101.091 47.7856 85.5494 32.3897 66.5223 32.5349ZM66.8127 91.6497C53.0145 91.6497 41.8306 80.4658 41.8306 66.6675C41.8306 52.8692 53.0145 41.6853 66.8127 41.6853C80.611 41.6853 91.7949 52.8692 91.7949 66.6675C91.7949 80.611 80.611 91.6497 66.8127 91.6497ZM72.5761 64.6283H74.1491L75.8049 61.5592H72.4178C72.2638 61.0175 72.0474 60.512 71.7438 60.0618H73.6916L75.2486 56.9927H59.4082L57.8555 60.0618H65.1555C66.7256 60.191 68.2478 60.5149 69.0669 61.3399C69.1323 61.4067 69.1817 61.4852 69.2383 61.5592H59.4721L57.8192 64.6283H69.5724C68.7605 66.7532 65.7771 66.9391 65.43 66.9536V66.9493H59.0363V66.9536V69.8542V69.8585H59.0697L59.0363 69.8919L71.0074 81.8616L73.0597 79.8064L63.109 69.8571H65.4736C67.7568 69.7903 71.8905 68.5775 72.5761 64.6283Z" fill="white"/>
<path d="M159.769 88C158.553 88 157.673 87.824 157.129 87.472C156.585 87.088 156.249 86.72 156.121 86.368C155.993 86.016 155.929 85.84 155.929 85.84C155.929 85.84 155.913 85.456 155.881 84.688C155.881 83.888 155.865 82.848 155.833 81.568C155.833 80.288 155.817 78.88 155.785 77.344C155.753 75.808 155.721 74.272 155.689 72.736C155.689 71.2 155.673 69.792 155.641 68.512C155.609 67.232 155.577 66.208 155.545 65.44C155.545 64.64 155.545 64.24 155.545 64.24C155.513 64.24 155.337 64.08 155.017 63.76C154.729 63.44 154.569 63.104 154.537 62.752C154.537 62.496 154.841 62.128 155.449 61.648C156.057 61.168 157.081 60.768 158.521 60.448C159.993 60.096 162.009 60.032 164.569 60.256C166.873 60.448 168.681 60.832 169.993 61.408C171.337 61.952 172.313 62.544 172.921 63.184C173.529 63.792 173.913 64.336 174.073 64.816C174.233 65.264 174.313 65.488 174.313 65.488C174.313 65.488 174.329 65.536 174.361 65.632C174.425 65.728 174.473 66.032 174.505 66.544C174.569 67.024 174.617 67.824 174.649 68.944C174.681 70.064 174.681 71.632 174.649 73.648C174.617 75.28 174.233 76.576 173.497 77.536C172.793 78.496 171.913 79.216 170.857 79.696C169.801 80.144 168.745 80.448 167.689 80.608C166.665 80.736 165.801 80.8 165.097 80.8C164.393 80.768 164.041 80.752 164.041 80.752C164.041 80.752 164.041 81.104 164.041 81.808C164.073 82.48 164.073 83.616 164.041 85.216C164.041 86.016 163.817 86.624 163.369 87.04C162.953 87.424 162.457 87.68 161.881 87.808C161.337 87.936 160.841 88 160.393 88C159.977 88 159.769 88 159.769 88ZM163.561 64.72L163.993 76.624C163.993 76.624 164.201 76.608 164.617 76.576C165.033 76.512 165.513 76.352 166.057 76.096C166.601 75.84 167.065 75.408 167.449 74.8C167.865 74.16 168.041 73.264 167.977 72.112C167.913 70.576 167.849 69.424 167.785 68.656C167.721 67.888 167.673 67.392 167.641 67.168C167.641 66.912 167.641 66.784 167.641 66.784C167.641 66.784 167.609 66.656 167.545 66.4C167.513 66.112 167.385 65.808 167.161 65.488C166.937 65.168 166.537 64.928 165.961 64.768C165.417 64.576 164.617 64.56 163.561 64.72ZM183.094 85.408L180.886 64.48C180.886 64.48 180.838 64.384 180.742 64.192C180.678 64 180.662 63.744 180.694 63.424C180.726 63.104 180.902 62.768 181.222 62.416C181.574 62.064 182.166 61.744 182.998 61.456C184.118 61.04 185.43 60.704 186.934 60.448C188.47 60.16 190.086 60.08 191.782 60.208C193.51 60.336 195.206 60.848 196.87 61.744C197.862 62.256 198.598 62.992 199.078 63.952C199.558 64.912 199.846 65.936 199.942 67.024C200.038 68.112 200.038 69.152 199.942 70.144C199.878 71.136 199.766 71.952 199.606 72.592C199.478 73.232 199.414 73.552 199.414 73.552C199.414 73.552 199.302 73.792 199.078 74.272C198.854 74.752 198.422 75.296 197.782 75.904C197.174 76.48 196.278 76.944 195.094 77.296L201.91 84.64C201.91 84.64 202.022 84.768 202.246 85.024C202.47 85.28 202.646 85.6 202.774 85.984C202.934 86.336 202.902 86.704 202.678 87.088C202.486 87.44 201.958 87.744 201.094 88C200.198 88.256 199.398 88.32 198.694 88.192C198.022 88.064 197.462 87.856 197.014 87.568C196.598 87.28 196.278 87.008 196.054 86.752C195.83 86.496 195.718 86.368 195.718 86.368L189.382 78.544L190.966 85.312C190.966 85.312 190.998 85.456 191.062 85.744C191.126 86 191.094 86.304 190.966 86.656C190.838 87.008 190.518 87.328 190.006 87.616C189.494 87.872 188.678 88 187.558 88C186.438 88 185.558 87.872 184.918 87.616C184.31 87.36 183.878 87.056 183.622 86.704C183.366 86.352 183.206 86.048 183.142 85.792C183.11 85.536 183.094 85.408 183.094 85.408ZM187.654 64.432L188.806 74.08C188.806 74.08 188.982 74.096 189.334 74.128C189.718 74.16 190.166 74.128 190.678 74.032C191.222 73.936 191.734 73.712 192.214 73.36C192.726 72.976 193.142 72.4 193.462 71.632C193.782 70.832 193.894 69.744 193.798 68.368C193.702 67.056 193.446 66.096 193.03 65.488C192.614 64.848 192.102 64.448 191.494 64.288C190.886 64.096 190.246 64.048 189.574 64.144C188.902 64.208 188.262 64.304 187.654 64.432ZM208.583 74.032C208.583 71.472 209.031 69.136 209.927 67.024C210.823 64.88 212.039 63.184 213.575 61.936C215.111 60.656 216.807 60.016 218.663 60.016C220.039 60.016 221.351 60.384 222.599 61.12C223.847 61.824 224.951 62.832 225.911 64.144C226.871 65.424 227.623 66.912 228.167 68.608C228.711 70.304 228.983 72.112 228.983 74.032C228.983 75.952 228.711 77.76 228.167 79.456C227.623 81.152 226.871 82.656 225.911 83.968C224.951 85.248 223.847 86.256 222.599 86.992C221.351 87.696 220.039 88.048 218.663 88.048C216.807 88.048 215.111 87.424 213.575 86.176C212.039 84.896 210.823 83.2 209.927 81.088C209.031 78.976 208.583 76.624 208.583 74.032ZM215.927 73.84C215.927 75.696 216.055 77.408 216.311 78.976C216.567 80.512 216.919 81.744 217.367 82.672C217.815 83.568 218.311 84.016 218.855 84.016C219.399 84.016 219.895 83.568 220.343 82.672C220.791 81.744 221.143 80.512 221.399 78.976C221.655 77.408 221.783 75.696 221.783 73.84C221.783 71.952 221.655 70.24 221.399 68.704C221.143 67.168 220.791 65.936 220.343 65.008C219.895 64.08 219.399 63.616 218.855 63.616C218.311 63.616 217.815 64.08 217.367 65.008C216.919 65.936 216.567 67.168 216.311 68.704C216.055 70.24 215.927 71.952 215.927 73.84ZM242.644 88C241.556 88 240.708 87.872 240.1 87.616C239.524 87.36 239.124 87.072 238.9 86.752C238.676 86.432 238.548 86.144 238.516 85.888C238.484 85.632 238.468 85.504 238.468 85.504C238.468 85.504 238.388 85.072 238.228 84.208C238.1 83.312 237.924 82.16 237.7 80.752C237.476 79.344 237.22 77.824 236.932 76.192C236.676 74.528 236.42 72.928 236.164 71.392C235.94 69.824 235.732 68.464 235.54 67.312C235.348 66.128 235.204 65.328 235.108 64.912C234.98 64.272 235.012 63.76 235.204 63.376C235.428 62.96 235.7 62.656 236.02 62.464C236.372 62.24 236.676 62.096 236.932 62.032C237.22 61.936 237.364 61.888 237.364 61.888C237.364 61.888 237.764 61.824 238.564 61.696C239.396 61.536 240.42 61.344 241.636 61.12C242.852 60.896 244.1 60.688 245.38 60.496C246.66 60.272 247.78 60.096 248.74 59.968C249.7 59.84 250.452 59.888 250.996 60.112C251.54 60.304 251.94 60.56 252.196 60.88C252.452 61.2 252.612 61.504 252.676 61.792C252.74 62.048 252.772 62.176 252.772 62.176C252.772 62.176 252.804 62.432 252.868 62.944C252.964 63.456 253.06 64.064 253.156 64.768C253.252 65.44 253.316 66.08 253.348 66.688C253.412 67.584 253.204 68.32 252.724 68.896C252.244 69.472 251.204 69.84 249.604 70C248.548 70.096 247.796 69.984 247.348 69.664C246.9 69.344 246.628 69.008 246.532 68.656C246.468 68.304 246.436 68.128 246.436 68.128L246.148 64.96L243.124 65.248L244.804 73.504C244.804 73.504 245.012 73.504 245.428 73.504C245.844 73.504 246.324 73.552 246.868 73.648C247.412 73.712 247.908 73.872 248.356 74.128C248.804 74.384 249.076 74.784 249.172 75.328C249.268 75.84 249.124 76.256 248.74 76.576C248.388 76.896 247.956 77.12 247.444 77.248C246.964 77.376 246.516 77.472 246.1 77.536C245.716 77.568 245.524 77.584 245.524 77.584C245.524 77.584 245.62 78.272 245.812 79.648C246.004 80.992 246.212 82.656 246.436 84.64C246.564 85.632 246.436 86.368 246.052 86.848C245.7 87.328 245.252 87.648 244.708 87.808C244.196 87.968 243.716 88.032 243.268 88C242.852 88 242.644 88 242.644 88ZM261.67 85.552C261.574 84.464 261.51 83.104 261.478 81.472C261.446 79.808 261.43 78.032 261.43 76.144C261.43 74.256 261.446 72.432 261.478 70.672C261.542 68.88 261.606 67.296 261.67 65.92C261.734 64.544 261.798 63.552 261.862 62.944C261.958 62.176 262.23 61.6 262.678 61.216C263.126 60.8 263.622 60.512 264.166 60.352C264.742 60.192 265.222 60.112 265.606 60.112C266.022 60.08 266.23 60.064 266.23 60.064C266.23 60.064 266.422 60.096 266.806 60.16C267.222 60.192 267.67 60.272 268.15 60.4C268.63 60.528 268.966 60.752 269.158 61.072C269.574 61.712 269.766 62.336 269.734 62.944C269.734 63.52 269.702 64.272 269.638 65.2C269.446 67.6 269.334 69.952 269.302 72.256C269.27 74.56 269.27 76.656 269.302 78.544C269.334 80.432 269.366 81.936 269.398 83.056C269.462 84.176 269.494 84.736 269.494 84.736C269.494 84.736 269.478 84.912 269.446 85.264C269.446 85.584 269.35 85.952 269.158 86.368C268.966 86.784 268.598 87.168 268.054 87.52C267.51 87.84 266.71 88 265.654 88C264.598 88 263.782 87.888 263.206 87.664C262.662 87.408 262.278 87.12 262.054 86.8C261.862 86.448 261.75 86.16 261.718 85.936C261.686 85.68 261.67 85.552 261.67 85.552ZM283.913 65.2C283.497 65.264 282.905 65.312 282.137 65.344C281.369 65.344 280.585 65.296 279.785 65.2C278.985 65.104 278.297 64.928 277.721 64.672C277.145 64.384 276.825 63.968 276.761 63.424C276.729 62.88 276.889 62.448 277.241 62.128C277.625 61.808 278.073 61.568 278.585 61.408C279.097 61.216 279.545 61.104 279.929 61.072C280.345 61.008 280.553 60.976 280.553 60.976L293.993 59.728C293.993 59.728 294.217 59.728 294.665 59.728C295.113 59.696 295.625 59.712 296.201 59.776C296.809 59.84 297.353 60 297.833 60.256C298.313 60.48 298.569 60.848 298.601 61.36C298.665 61.872 298.505 62.304 298.121 62.656C297.769 62.976 297.337 63.248 296.825 63.472C296.313 63.664 295.865 63.808 295.481 63.904C295.097 63.968 294.905 64 294.905 64L291.833 64.48C291.961 65.28 292.105 66.416 292.265 67.888C292.425 69.328 292.585 70.928 292.745 72.688C292.905 74.448 293.049 76.176 293.177 77.872C293.305 79.568 293.401 81.088 293.465 82.432C293.561 83.776 293.609 84.736 293.609 85.312C293.609 86.048 293.401 86.608 292.985 86.992C292.601 87.344 292.137 87.6 291.593 87.76C291.081 87.888 290.617 87.968 290.201 88C289.817 88 289.625 88 289.625 88C289.625 88 289.417 88 289.001 88C288.585 87.968 288.105 87.84 287.561 87.616C287.049 87.392 286.585 86.976 286.169 86.368C285.785 85.76 285.593 84.848 285.593 83.632C285.593 82.544 285.529 81.216 285.401 79.648C285.305 78.08 285.177 76.464 285.017 74.8C284.857 73.104 284.681 71.536 284.489 70.096C284.329 68.656 284.185 67.488 284.057 66.592C283.961 65.664 283.913 65.2 283.913 65.2ZM306.385 85.408C306.385 85.408 306.353 84.96 306.289 84.064C306.257 83.168 306.193 82.016 306.097 80.608C306.033 79.2 305.953 77.696 305.857 76.096C305.761 74.464 305.665 72.912 305.569 71.44C305.505 69.936 305.457 68.688 305.425 67.696C305.393 66.672 305.377 66.064 305.377 65.872C305.441 65.328 305.489 64.896 305.521 64.576C305.585 64.224 305.745 63.984 306.001 63.856C306.193 63.76 306.241 63.632 306.145 63.472C306.081 63.312 306.065 63.104 306.097 62.848C306.161 62.592 306.481 62.32 307.057 62.032C307.505 61.808 308.209 61.488 309.169 61.072C310.161 60.624 311.345 60.272 312.721 60.016C314.097 59.76 315.569 59.792 317.137 60.112C318.705 60.4 320.289 61.152 321.889 62.368C322.977 63.2 323.633 64.064 323.857 64.96C324.113 65.824 324.113 66.672 323.857 67.504C323.601 68.304 323.233 69.04 322.753 69.712C322.273 70.352 321.825 70.864 321.409 71.248C321.025 71.632 320.833 71.824 320.833 71.824C320.833 71.824 321.057 71.904 321.505 72.064C321.953 72.224 322.497 72.48 323.137 72.832C323.809 73.184 324.481 73.664 325.153 74.272C325.825 74.848 326.385 75.568 326.833 76.432C327.313 77.296 327.569 78.304 327.601 79.456C327.665 81.408 327.057 83.008 325.777 84.256C324.529 85.504 322.785 86.448 320.545 87.088C318.337 87.696 315.793 88 312.913 88C311.249 88 309.969 87.872 309.073 87.616C308.177 87.36 307.537 87.056 307.153 86.704C306.769 86.352 306.545 86.048 306.481 85.792C306.417 85.536 306.385 85.408 306.385 85.408ZM312.769 64.72C312.769 64.72 312.769 64.976 312.769 65.488C312.801 65.968 312.817 66.544 312.817 67.216C312.849 67.888 312.881 68.512 312.913 69.088C312.977 69.632 313.041 69.968 313.105 70.096C313.169 70.224 313.393 70.192 313.777 70C314.161 69.808 314.561 69.52 314.977 69.136C315.425 68.72 315.777 68.256 316.033 67.744C316.321 67.2 316.417 66.672 316.321 66.16C316.097 65.136 315.633 64.544 314.929 64.384C314.225 64.224 313.505 64.336 312.769 64.72ZM313.825 75.856L314.161 83.824C314.161 83.824 314.385 83.824 314.833 83.824C315.281 83.824 315.825 83.776 316.465 83.68C317.105 83.584 317.729 83.376 318.337 83.056C318.977 82.736 319.473 82.272 319.825 81.664C320.209 81.024 320.337 80.16 320.209 79.072C320.081 77.984 319.777 77.184 319.297 76.672C318.849 76.128 318.305 75.776 317.665 75.616C317.057 75.456 316.449 75.408 315.841 75.472C315.265 75.504 314.785 75.584 314.401 75.712C314.017 75.808 313.825 75.856 313.825 75.856ZM337.77 62.08C337.738 62.08 337.786 61.904 337.914 61.552C338.074 61.168 338.426 60.8 338.97 60.448C339.514 60.096 340.41 59.904 341.658 59.872C342.778 59.84 343.626 59.984 344.202 60.304C344.778 60.592 345.162 60.88 345.354 61.168C345.578 61.456 345.69 61.6 345.69 61.6C345.69 61.6 345.866 62.016 346.218 62.848C346.57 63.68 347.05 64.784 347.658 66.16C348.266 67.504 348.938 69.008 349.674 70.672C350.41 72.336 351.146 74.032 351.882 75.76C352.65 77.456 353.354 79.056 353.994 80.56C354.666 82.032 355.226 83.28 355.674 84.304C356.122 85.296 356.41 85.92 356.538 86.176C356.826 86.784 356.986 87.216 357.018 87.472C357.05 87.728 357.034 87.904 356.97 88C356.938 88.064 356.922 88.112 356.922 88.144C356.698 88.592 356.25 88.976 355.578 89.296C354.938 89.648 354.154 89.84 353.226 89.872C351.946 89.904 351.018 89.76 350.442 89.44C349.866 89.152 349.482 88.848 349.29 88.528C349.13 88.24 349.066 88.112 349.098 88.144C349.098 88.144 348.922 87.776 348.57 87.04C348.25 86.304 347.866 85.424 347.418 84.4C346.97 83.344 346.554 82.384 346.17 81.52C346.17 81.52 345.946 81.52 345.498 81.52C345.082 81.52 344.586 81.52 344.01 81.52C343.434 81.52 342.922 81.52 342.474 81.52C342.058 81.52 341.85 81.52 341.85 81.52C341.722 81.968 341.594 82.528 341.466 83.2C341.338 83.84 341.226 84.416 341.13 84.928C341.034 85.44 340.986 85.696 340.986 85.696C340.986 85.696 340.906 85.888 340.746 86.272C340.618 86.656 340.25 87.04 339.642 87.424C339.034 87.808 338.026 88 336.618 88C335.562 88 334.762 87.888 334.218 87.664C333.706 87.408 333.354 87.12 333.162 86.8C333.002 86.48 332.922 86.208 332.922 85.984C332.922 85.728 332.922 85.6 332.922 85.6C332.986 85.28 333.114 84.624 333.306 83.632C333.53 82.608 333.786 81.392 334.074 79.984C334.394 78.544 334.714 77.024 335.034 75.424C335.386 73.824 335.722 72.24 336.042 70.672C336.362 69.104 336.65 67.68 336.906 66.4C337.162 65.088 337.37 64.048 337.53 63.28C337.69 62.48 337.77 62.08 337.77 62.08ZM342.81 69.664C342.778 69.792 342.746 70.048 342.714 70.432L342.522 71.776C342.458 72.512 342.378 73.296 342.282 74.128C342.186 74.96 342.09 75.744 341.994 76.48C341.93 76.864 341.882 77.104 341.85 77.2H342.474C342.858 77.2 343.274 77.184 343.722 77.152C344.17 77.12 344.57 77.104 344.922 77.104C344.794 76.848 344.682 76.528 344.586 76.144C344.522 75.728 344.442 75.344 344.346 74.992C344.154 74.256 343.93 73.488 343.674 72.688C343.45 71.888 343.242 71.136 343.05 70.432C342.954 70.048 342.874 69.792 342.81 69.664ZM380.626 81.808C380.626 81.808 380.578 82.016 380.482 82.432C380.386 82.848 380.178 83.36 379.858 83.968C379.538 84.576 379.042 85.2 378.37 85.84C377.73 86.448 376.85 86.96 375.73 87.376C374.61 87.792 373.202 88 371.506 88C369.458 88 367.778 87.68 366.466 87.04C365.186 86.4 364.178 85.536 363.442 84.448C362.706 83.328 362.178 82.096 361.858 80.752C361.538 79.376 361.346 77.952 361.282 76.48C361.25 75.008 361.266 73.584 361.33 72.208C361.394 70.8 361.442 69.536 361.474 68.416C361.506 66.72 361.81 65.36 362.386 64.336C362.994 63.28 363.73 62.48 364.594 61.936C365.49 61.36 366.418 60.96 367.378 60.736C368.338 60.512 369.202 60.384 369.97 60.352C371.538 60.256 373.122 60.528 374.722 61.168C376.322 61.808 377.618 62.992 378.61 64.72C379.122 65.584 379.266 66.272 379.042 66.784C378.85 67.264 378.482 67.616 377.938 67.84C377.426 68.064 376.898 68.208 376.354 68.272C375.81 68.336 375.458 68.368 375.298 68.368C374.274 68.368 373.49 68.224 372.946 67.936C372.434 67.648 372.066 67.312 371.842 66.928C371.65 66.512 371.554 66.144 371.554 65.824C371.554 65.568 371.474 65.312 371.314 65.056C371.186 64.768 371.01 64.576 370.786 64.48C370.594 64.384 370.386 64.496 370.162 64.816C369.97 65.136 369.81 65.76 369.682 66.688C369.586 67.424 369.522 68.4 369.49 69.616C369.49 70.8 369.506 72.064 369.538 73.408C369.57 74.72 369.602 75.968 369.634 77.152C369.698 78.336 369.746 79.312 369.778 80.08C369.842 80.816 369.874 81.184 369.874 81.184C369.874 81.184 369.906 81.424 369.97 81.904C370.066 82.384 370.242 82.864 370.498 83.344C370.786 83.824 371.202 84.08 371.746 84.112C372.162 84.144 372.482 84.016 372.706 83.728C372.962 83.408 373.138 83.056 373.234 82.672C373.362 82.256 373.442 81.904 373.474 81.616C373.506 81.296 373.522 81.136 373.522 81.136C373.522 81.136 373.506 81.008 373.474 80.752C373.474 80.496 373.554 80.208 373.714 79.888C373.874 79.536 374.21 79.248 374.722 79.024C375.234 78.768 376.018 78.656 377.074 78.688C378.13 78.72 378.914 78.896 379.426 79.216C379.938 79.504 380.274 79.856 380.434 80.272C380.594 80.656 380.658 81.008 380.626 81.328C380.626 81.648 380.626 81.808 380.626 81.808ZM388.993 85.408L386.353 62.896C386.353 62.896 386.337 62.784 386.305 62.56C386.273 62.304 386.321 62 386.449 61.648C386.577 61.296 386.881 60.976 387.361 60.688C387.873 60.368 388.673 60.16 389.761 60.064C390.849 59.968 391.681 60.048 392.257 60.304C392.865 60.56 393.297 60.88 393.553 61.264C393.809 61.648 393.953 62 393.985 62.32C394.049 62.64 394.081 62.8 394.081 62.8L394.849 70.144L399.313 61.936C399.313 61.936 399.441 61.776 399.697 61.456C399.953 61.104 400.401 60.8 401.041 60.544C401.681 60.288 402.545 60.272 403.633 60.496C404.753 60.72 405.505 61.024 405.889 61.408C406.273 61.792 406.433 62.208 406.369 62.656C406.337 63.104 406.193 63.536 405.937 63.952C405.777 64.208 405.473 64.688 405.025 65.392C404.577 66.096 404.049 66.896 403.441 67.792C402.865 68.688 402.305 69.552 401.761 70.384C401.217 71.216 400.753 71.92 400.369 72.496C400.017 73.04 399.841 73.312 399.841 73.312L408.097 83.488C408.097 83.488 408.193 83.648 408.385 83.968C408.577 84.256 408.689 84.608 408.721 85.024C408.753 85.408 408.529 85.76 408.049 86.08C407.601 86.4 406.721 86.592 405.409 86.656C404.129 86.688 403.105 86.512 402.337 86.128C401.569 85.712 401.009 85.296 400.657 84.88C400.337 84.432 400.177 84.208 400.177 84.208L396.145 78.16L396.865 85.504C396.865 85.504 396.865 85.632 396.865 85.888C396.865 86.144 396.769 86.432 396.577 86.752C396.417 87.072 396.065 87.36 395.521 87.616C394.977 87.872 394.177 88 393.121 88C392.065 88 391.249 87.872 390.673 87.616C390.097 87.36 389.681 87.056 389.425 86.704C389.201 86.352 389.073 86.048 389.041 85.792C389.009 85.536 388.993 85.408 388.993 85.408ZM414.565 63.664C414.565 63.664 414.533 63.536 414.469 63.28C414.405 62.992 414.421 62.656 414.517 62.272C414.645 61.888 414.933 61.536 415.381 61.216C415.861 60.896 416.613 60.688 417.637 60.592C418.661 60.496 419.813 60.416 421.093 60.352C422.405 60.288 423.653 60.224 424.837 60.16C426.053 60.096 427.045 60.048 427.813 60.016C428.581 59.984 428.965 59.968 428.965 59.968C428.965 59.968 429.173 59.984 429.589 60.016C430.037 60.016 430.549 60.08 431.125 60.208C431.733 60.304 432.277 60.512 432.757 60.832C433.237 61.12 433.525 61.552 433.621 62.128C433.717 62.704 433.605 63.152 433.285 63.472C432.965 63.792 432.581 64.032 432.133 64.192C431.685 64.32 431.285 64.4 430.933 64.432C430.581 64.464 430.405 64.48 430.405 64.48L422.725 64.912C422.725 64.912 422.773 65.12 422.869 65.536C422.965 65.952 423.061 66.432 423.157 66.976C423.285 67.488 423.365 67.936 423.397 68.32C423.429 68.672 423.461 69.136 423.493 69.712C423.525 70.256 423.557 70.752 423.589 71.2C423.621 71.616 423.637 71.824 423.637 71.824H427.189C427.189 71.824 427.365 71.84 427.717 71.872C428.069 71.872 428.469 71.936 428.917 72.064C429.397 72.16 429.813 72.32 430.165 72.544C430.517 72.768 430.709 73.104 430.741 73.552C430.773 74.128 430.549 74.56 430.069 74.848C429.621 75.136 429.141 75.328 428.629 75.424C428.149 75.488 427.845 75.536 427.717 75.568C427.621 75.568 427.365 75.584 426.949 75.616C426.533 75.616 426.069 75.616 425.557 75.616C425.077 75.616 424.645 75.616 424.261 75.616C423.877 75.616 423.685 75.616 423.685 75.616C423.685 75.616 423.685 75.856 423.685 76.336C423.717 76.784 423.749 77.312 423.781 77.92C423.813 78.528 423.813 79.056 423.781 79.504C423.781 79.92 423.765 80.432 423.733 81.04C423.701 81.616 423.669 82.128 423.637 82.576C423.605 82.992 423.589 83.2 423.589 83.2L430.069 82.96C430.069 82.96 430.277 82.96 430.693 82.96C431.109 82.928 431.605 82.96 432.181 83.056C432.757 83.152 433.269 83.344 433.717 83.632C434.165 83.92 434.405 84.352 434.437 84.928C434.501 85.504 434.341 85.968 433.957 86.32C433.573 86.672 433.125 86.928 432.613 87.088C432.101 87.248 431.637 87.36 431.221 87.424C430.837 87.456 430.645 87.472 430.645 87.472L420.277 88C420.277 88 420.021 88 419.509 88C419.029 88.032 418.469 88 417.829 87.904C417.189 87.776 416.629 87.536 416.149 87.184C415.669 86.8 415.445 86.224 415.477 85.456C415.541 84.432 415.605 82.832 415.669 80.656C415.733 78.448 415.701 75.872 415.573 72.928C415.445 69.984 415.109 66.896 414.565 63.664ZM442.791 85.408L440.583 64.48C440.583 64.48 440.535 64.384 440.439 64.192C440.375 64 440.359 63.744 440.391 63.424C440.423 63.104 440.599 62.768 440.919 62.416C441.271 62.064 441.863 61.744 442.695 61.456C443.815 61.04 445.127 60.704 446.631 60.448C448.167 60.16 449.783 60.08 451.479 60.208C453.207 60.336 454.903 60.848 456.567 61.744C457.559 62.256 458.295 62.992 458.775 63.952C459.255 64.912 459.543 65.936 459.639 67.024C459.735 68.112 459.735 69.152 459.639 70.144C459.575 71.136 459.463 71.952 459.303 72.592C459.175 73.232 459.111 73.552 459.111 73.552C459.111 73.552 458.999 73.792 458.775 74.272C458.551 74.752 458.119 75.296 457.479 75.904C456.871 76.48 455.975 76.944 454.791 77.296L461.607 84.64C461.607 84.64 461.719 84.768 461.943 85.024C462.167 85.28 462.343 85.6 462.471 85.984C462.631 86.336 462.599 86.704 462.375 87.088C462.183 87.44 461.655 87.744 460.791 88C459.895 88.256 459.095 88.32 458.391 88.192C457.719 88.064 457.159 87.856 456.711 87.568C456.295 87.28 455.975 87.008 455.751 86.752C455.527 86.496 455.415 86.368 455.415 86.368L449.079 78.544L450.663 85.312C450.663 85.312 450.695 85.456 450.759 85.744C450.823 86 450.791 86.304 450.663 86.656C450.535 87.008 450.215 87.328 449.703 87.616C449.191 87.872 448.375 88 447.255 88C446.135 88 445.255 87.872 444.615 87.616C444.007 87.36 443.575 87.056 443.319 86.704C443.063 86.352 442.903 86.048 442.839 85.792C442.807 85.536 442.791 85.408 442.791 85.408ZM447.351 64.432L448.503 74.08C448.503 74.08 448.679 74.096 449.031 74.128C449.415 74.16 449.863 74.128 450.375 74.032C450.919 73.936 451.431 73.712 451.911 73.36C452.423 72.976 452.839 72.4 453.159 71.632C453.479 70.832 453.591 69.744 453.495 68.368C453.399 67.056 453.143 66.096 452.727 65.488C452.311 64.848 451.799 64.448 451.191 64.288C450.583 64.096 449.943 64.048 449.271 64.144C448.599 64.208 447.959 64.304 447.351 64.432Z" fill="white"/>
</svg>
