<svg width="382" height="125" viewBox="0 0 382 125" fill="none" xmlns="http://www.w3.org/2000/svg">
<g clip-path="url(#clip0_1312_10)">
<path d="M73.7922 108.548V112.18C73.7922 115.033 71.7172 117.497 68.8641 117.886L67.9563 121.128C67.4375 122.944 65.8813 124.111 64.0656 124.111H55.2469C53.4312 124.111 51.7453 122.814 51.3562 121.128L50.4484 117.756C47.725 117.367 45.5203 114.903 45.5203 112.05V108.419C45.5203 106.473 47.0766 104.917 49.0219 104.917H70.2906C72.2359 105.047 73.7922 106.603 73.7922 108.548ZM59.6562 19.0641C61.6016 19.0641 63.1578 17.5078 63.1578 15.5625V3.50156C63.1578 1.55625 61.6016 0 59.6562 0C57.7109 0 56.1547 1.55625 56.1547 3.50156V15.5625C56.1547 17.5078 57.7109 19.0641 59.6562 19.0641ZM19.0641 59.6562C19.0641 57.7109 17.5078 56.1547 15.5625 56.1547H3.50156C1.55625 56.1547 0 57.7109 0 59.6562C0 61.6016 1.55625 63.1578 3.50156 63.1578H15.5625C17.5078 63.0281 19.0641 61.4719 19.0641 59.6562ZM115.811 56.1547H103.75C101.805 56.1547 100.248 57.7109 100.248 59.6562C100.248 61.6016 101.805 63.1578 103.75 63.1578H115.811C117.756 63.1578 119.312 61.6016 119.312 59.6562C119.312 57.7109 117.627 56.1547 115.811 56.1547ZM26.0672 88.3172L17.5078 96.8766C16.2109 98.1734 16.2109 100.378 17.5078 101.805C18.1562 102.453 19.0641 102.842 19.9719 102.842C20.8797 102.842 21.7875 102.453 22.4359 101.805L30.9953 93.2453C32.2922 91.9484 32.2922 89.7438 30.9953 88.3172C29.5687 87.0203 27.4938 87.0203 26.0672 88.3172ZM90.7812 31.9031C91.6891 31.9031 92.5969 31.5141 93.2453 30.8656L101.805 22.3062C103.102 21.0094 103.102 18.8047 101.805 17.3781C100.508 16.0813 98.3031 16.0813 96.8766 17.3781L88.3172 25.9375C87.0203 27.2344 87.0203 29.4391 88.3172 30.8656C88.9656 31.6437 89.8734 31.9031 90.7812 31.9031ZM26.0672 30.9953C26.7156 31.6437 27.6234 32.0328 28.5312 32.0328C29.4391 32.0328 30.3469 31.6437 30.9953 30.9953C32.2922 29.6984 32.2922 27.4937 30.9953 26.0672L22.4359 17.5078C21.1391 16.2109 18.9344 16.2109 17.5078 17.5078C16.2109 18.8047 16.2109 21.0094 17.5078 22.4359L26.0672 30.9953ZM93.2453 88.3172C91.9484 87.0203 89.7437 87.0203 88.3172 88.3172C87.0203 89.6141 87.0203 91.8188 88.3172 93.2453L96.8766 101.805C97.525 102.453 98.4328 102.842 99.3406 102.842C100.248 102.842 101.156 102.453 101.805 101.805C103.102 100.508 103.102 98.3031 101.805 96.8766L93.2453 88.3172ZM59.3969 29.05C42.4078 29.1797 28.9203 42.9266 29.05 59.9156C29.1797 67.9563 32.4219 75.3484 37.6094 80.7953C41.6297 84.9453 44.2234 90.3922 45.1312 96.0984C45.5203 98.5625 47.5953 100.378 50.0594 100.378H68.9938C71.4578 100.378 73.6625 98.5625 74.0516 96.0984C74.9594 90.3922 77.5531 85.075 81.5734 80.925C86.8906 75.4781 90.1328 67.9563 90.1328 59.6562C90.2625 42.6672 76.3859 28.9203 59.3969 29.05ZM59.6562 81.8328C47.3359 81.8328 37.35 71.8469 37.35 59.5266C37.35 47.2062 47.3359 37.2203 59.6562 37.2203C71.9766 37.2203 81.9625 47.2062 81.9625 59.5266C81.9625 71.9766 71.9766 81.8328 59.6562 81.8328ZM64.8022 57.7057H66.2068L67.6852 54.9655H64.6609C64.5234 54.4817 64.3302 54.0304 64.0591 53.6284H65.7983L67.1885 50.8881H53.0448L51.6584 53.6284H58.1765C59.5784 53.7438 60.9376 54.033 61.669 54.7696C61.7274 54.8293 61.7715 54.8993 61.822 54.9655H53.1018L51.626 57.7057H62.1203C61.3954 59.6031 58.7316 59.7691 58.4216 59.782V59.7782H52.7128V59.782V62.3719V62.3758H52.7426L52.7128 62.4056L63.4016 73.0932L65.2341 71.2581L56.3492 62.3745H58.4605C60.4992 62.3148 64.1901 61.232 64.8022 57.7057Z" fill="white"/>
<mask id="path-2-outside-1_1312_10" maskUnits="userSpaceOnUse" x="142.176" y="45.5322" width="242" height="33" fill="black">
<rect fill="white" x="142.176" y="45.5322" width="242" height="33"/>
<path d="M145.853 46.5322H143.176V47.7737H144.922H145.775C148.956 47.7737 151.349 48.6918 152.952 50.5281C154.555 52.3643 155.357 54.7567 155.357 57.705V58.1318C155.357 61.0284 154.555 63.395 152.952 65.2312C151.349 67.0673 148.956 67.9856 145.775 67.9856H144.534H143.68H143.253H143.176V77.1023H144.534V69.2658H145.853C149.422 69.2658 152.131 68.2119 153.98 66.1041C155.829 63.9962 156.754 61.3517 156.754 58.1706V57.6663C156.754 54.4851 155.816 51.8343 153.941 49.7134C152.066 47.5925 149.37 46.5322 145.853 46.5322ZM170.332 67.8304C171.987 66.8993 173.255 65.5867 174.134 63.8928C175.013 62.1988 175.453 60.2785 175.453 58.1318V57.5887C175.453 54.4075 174.502 51.7695 172.601 49.6746C170.7 47.5797 167.991 46.5322 164.474 46.5322H161.797V58.8301C162.237 58.856 162.676 58.8689 163.116 58.8689V47.7737H164.396C167.577 47.7737 169.983 48.6982 171.612 50.5475C173.241 52.3967 174.056 54.7695 174.056 57.6663V58.093C174.056 60.9638 173.241 63.3174 171.612 65.1536C169.983 66.9897 167.577 67.908 164.396 67.908H163.116H161.797V69.1494C162.573 69.1753 163.09 69.1882 163.349 69.1882H164.474C166.258 69.1882 167.823 68.9167 169.168 68.3735L173.979 77.1023H175.53L170.332 67.8304ZM194.152 77.1023C198.445 77.1023 202.105 75.5893 205.131 72.5633C206.631 71.0892 207.762 69.4986 208.525 67.7916C209.288 66.0847 209.67 64.1449 209.67 61.9724C209.67 57.6534 208.157 54.0068 205.131 51.0324C202.105 48.084 198.368 46.597 193.919 46.571C191.178 46.5969 188.604 47.2823 186.199 48.6271C183.845 49.9979 181.97 51.8989 180.574 54.3299L181.699 54.9506C182.966 52.7006 184.686 50.9548 186.858 49.7134C189.005 48.472 191.359 47.8383 193.919 47.8124C198.057 47.8383 201.497 49.222 204.238 51.9635C206.98 54.6533 208.363 57.9894 208.389 61.9724C208.389 63.964 208.04 65.7419 207.342 67.3067C206.644 68.8715 205.622 70.3391 204.277 71.7099C201.51 74.4773 198.135 75.8609 194.152 75.8609C191.669 75.8609 189.419 75.3307 187.402 74.2703L186.82 75.3953C189.018 76.5333 191.462 77.1023 194.152 77.1023ZM215.76 77.1023V53.1661H217.312V52.0798H214.713V77.1023H215.76ZM225.071 47.6185V46.5322H214.713V47.6185H225.071ZM230.114 46.5322V77.1023H231.123V46.5322H230.114ZM247.533 47.0366L247.533 46.5322H236.166V47.7737H242.722V77.1023H244.08V47.7737H247.572C247.52 47.3598 247.507 47.1141 247.533 47.0366ZM248.542 46.5322V47.7737H250.675V46.5322H248.542ZM255.719 59.5284L255.719 77.1023H263.167C265.392 77.1023 267.15 76.3135 268.443 74.7358C269.736 73.1582 270.383 71.115 270.383 68.6063C270.383 67.9339 270.299 67.1645 270.131 66.298C269.963 65.4316 269.678 64.5911 269.277 63.7764C268.877 62.9617 268.333 62.2246 267.648 61.5651C266.963 60.9056 266.077 60.4465 264.991 60.1879C266.077 59.5155 266.866 58.6167 267.357 57.4917C267.849 56.3666 268.094 55.1834 268.094 53.942C268.094 51.5625 267.435 49.7328 266.116 48.4526C264.797 47.1723 262.999 46.5322 260.723 46.5322H255.719V58.5973H257.077L257.038 48.1228H260.84C262.986 48.1228 264.499 48.6853 265.379 49.8104C266.258 50.9354 266.698 52.3126 266.698 53.942C266.698 55.7007 266.297 57.0649 265.495 58.0348C264.693 59.0047 263.594 59.4896 262.197 59.4896H257.115L257.969 61.1966H263.167C264.228 61.1966 265.133 61.4358 265.883 61.9143C266.633 62.3927 267.247 62.994 267.726 63.7182C268.204 64.4424 268.56 65.2571 268.792 66.1622C269.025 67.0674 269.142 67.9468 269.142 68.8003C269.142 69.6279 269.025 70.4426 268.792 71.2443C268.56 72.0461 268.211 72.7638 267.745 73.3974C267.279 74.0311 266.672 74.5419 265.922 74.9298C265.172 75.3178 264.279 75.5117 263.245 75.5117H257.038L257.077 59.5284H255.719ZM285.784 50.2177C285.784 50.3729 286.243 51.8536 287.162 54.6597C288.08 57.4658 289.082 60.537 290.168 63.8734C291.254 67.2097 292.716 71.6195 294.552 77.1023H296.22L285.94 46.5322H285.629L275.426 77.1023H277.017L285.784 50.2177ZM285.086 68.4123H283.69L286.017 77.1023H287.414L285.086 68.4123ZM314.725 77.0247L314.803 75.7833C311.001 75.5247 307.975 73.947 305.725 71.0504C303.578 68.3606 302.505 65.1148 302.505 61.313C302.505 59.3215 302.828 57.5951 303.475 56.1339C304.121 54.6727 305.091 53.2567 306.384 51.8859C308.97 49.1703 312.203 47.8125 316.083 47.8125C318.436 47.8125 320.557 48.3168 322.445 49.3255C324.333 50.3341 325.872 51.7437 327.062 53.5541L327.993 52.817C326.7 50.8515 325.019 49.3125 322.949 48.2004C320.984 47.1401 318.76 46.6228 316.277 46.6487C314.182 46.6487 312.216 47.0043 310.38 47.7155C308.544 48.4268 306.927 49.5195 305.531 50.9937C304.134 52.4937 303.08 54.0454 302.369 55.649C301.658 57.2526 301.302 59.1405 301.302 61.313C301.328 65.4252 302.505 68.9427 304.832 71.8651C307.315 74.9945 310.613 76.7144 314.725 77.0247ZM317.092 77.0635C319.212 76.9342 321.152 76.43 322.911 75.5506C324.928 74.5161 326.622 73.0548 327.993 71.1668L327.101 70.3909C325.859 72.0979 324.294 73.4427 322.406 74.4256C320.777 75.2532 318.993 75.7187 317.053 75.8222L317.092 77.0635ZM338.002 64.2225L345.683 77.1023H347.196L338.778 62.9811L338.002 64.2225ZM338.157 61.8561L346.847 46.6486H345.295L334.355 65.9295V46.571H333.036V68.3735H334.355V68.3347L337.342 63.1363L338.157 61.8561ZM353.326 65.7743V47.6185H362.636V46.5322H352.239V65.7743H353.326ZM363.024 77.1023V76.0548H353.326V68.0244H354.877V66.9769H352.239V77.1023H363.024ZM376.602 67.8304C378.258 66.8993 379.525 65.5867 380.404 63.8928C381.283 62.1988 381.723 60.2785 381.723 58.1318V57.5887C381.723 54.4075 380.773 51.7695 378.872 49.6746C376.971 47.5797 374.262 46.5322 370.744 46.5322H368.068V58.8301C368.507 58.856 368.947 58.8689 369.387 58.8689V47.7737H370.667C373.848 47.7737 376.253 48.6982 377.883 50.5475C379.512 52.3967 380.327 54.7695 380.327 57.6663V58.093C380.327 60.9638 379.512 63.3174 377.883 65.1536C376.253 66.9897 373.848 67.908 370.667 67.908H369.387H368.068V69.1494C368.843 69.1753 369.361 69.1882 369.619 69.1882H370.744C372.529 69.1882 374.094 68.9167 375.438 68.3735L380.249 77.1023H381.801L376.602 67.8304Z"/>
</mask>
<path d="M145.853 46.5322H143.176V47.7737H144.922H145.775C148.956 47.7737 151.349 48.6918 152.952 50.5281C154.555 52.3643 155.357 54.7567 155.357 57.705V58.1318C155.357 61.0284 154.555 63.395 152.952 65.2312C151.349 67.0673 148.956 67.9856 145.775 67.9856H144.534H143.68H143.253H143.176V77.1023H144.534V69.2658H145.853C149.422 69.2658 152.131 68.2119 153.98 66.1041C155.829 63.9962 156.754 61.3517 156.754 58.1706V57.6663C156.754 54.4851 155.816 51.8343 153.941 49.7134C152.066 47.5925 149.37 46.5322 145.853 46.5322ZM170.332 67.8304C171.987 66.8993 173.255 65.5867 174.134 63.8928C175.013 62.1988 175.453 60.2785 175.453 58.1318V57.5887C175.453 54.4075 174.502 51.7695 172.601 49.6746C170.7 47.5797 167.991 46.5322 164.474 46.5322H161.797V58.8301C162.237 58.856 162.676 58.8689 163.116 58.8689V47.7737H164.396C167.577 47.7737 169.983 48.6982 171.612 50.5475C173.241 52.3967 174.056 54.7695 174.056 57.6663V58.093C174.056 60.9638 173.241 63.3174 171.612 65.1536C169.983 66.9897 167.577 67.908 164.396 67.908H163.116H161.797V69.1494C162.573 69.1753 163.09 69.1882 163.349 69.1882H164.474C166.258 69.1882 167.823 68.9167 169.168 68.3735L173.979 77.1023H175.53L170.332 67.8304ZM194.152 77.1023C198.445 77.1023 202.105 75.5893 205.131 72.5633C206.631 71.0892 207.762 69.4986 208.525 67.7916C209.288 66.0847 209.67 64.1449 209.67 61.9724C209.67 57.6534 208.157 54.0068 205.131 51.0324C202.105 48.084 198.368 46.597 193.919 46.571C191.178 46.5969 188.604 47.2823 186.199 48.6271C183.845 49.9979 181.97 51.8989 180.574 54.3299L181.699 54.9506C182.966 52.7006 184.686 50.9548 186.858 49.7134C189.005 48.472 191.359 47.8383 193.919 47.8124C198.057 47.8383 201.497 49.222 204.238 51.9635C206.98 54.6533 208.363 57.9894 208.389 61.9724C208.389 63.964 208.04 65.7419 207.342 67.3067C206.644 68.8715 205.622 70.3391 204.277 71.7099C201.51 74.4773 198.135 75.8609 194.152 75.8609C191.669 75.8609 189.419 75.3307 187.402 74.2703L186.82 75.3953C189.018 76.5333 191.462 77.1023 194.152 77.1023ZM215.76 77.1023V53.1661H217.312V52.0798H214.713V77.1023H215.76ZM225.071 47.6185V46.5322H214.713V47.6185H225.071ZM230.114 46.5322V77.1023H231.123V46.5322H230.114ZM247.533 47.0366L247.533 46.5322H236.166V47.7737H242.722V77.1023H244.08V47.7737H247.572C247.52 47.3598 247.507 47.1141 247.533 47.0366ZM248.542 46.5322V47.7737H250.675V46.5322H248.542ZM255.719 59.5284L255.719 77.1023H263.167C265.392 77.1023 267.15 76.3135 268.443 74.7358C269.736 73.1582 270.383 71.115 270.383 68.6063C270.383 67.9339 270.299 67.1645 270.131 66.298C269.963 65.4316 269.678 64.5911 269.277 63.7764C268.877 62.9617 268.333 62.2246 267.648 61.5651C266.963 60.9056 266.077 60.4465 264.991 60.1879C266.077 59.5155 266.866 58.6167 267.357 57.4917C267.849 56.3666 268.094 55.1834 268.094 53.942C268.094 51.5625 267.435 49.7328 266.116 48.4526C264.797 47.1723 262.999 46.5322 260.723 46.5322H255.719V58.5973H257.077L257.038 48.1228H260.84C262.986 48.1228 264.499 48.6853 265.379 49.8104C266.258 50.9354 266.698 52.3126 266.698 53.942C266.698 55.7007 266.297 57.0649 265.495 58.0348C264.693 59.0047 263.594 59.4896 262.197 59.4896H257.115L257.969 61.1966H263.167C264.228 61.1966 265.133 61.4358 265.883 61.9143C266.633 62.3927 267.247 62.994 267.726 63.7182C268.204 64.4424 268.56 65.2571 268.792 66.1622C269.025 67.0674 269.142 67.9468 269.142 68.8003C269.142 69.6279 269.025 70.4426 268.792 71.2443C268.56 72.0461 268.211 72.7638 267.745 73.3974C267.279 74.0311 266.672 74.5419 265.922 74.9298C265.172 75.3178 264.279 75.5117 263.245 75.5117H257.038L257.077 59.5284H255.719ZM285.784 50.2177C285.784 50.3729 286.243 51.8536 287.162 54.6597C288.08 57.4658 289.082 60.537 290.168 63.8734C291.254 67.2097 292.716 71.6195 294.552 77.1023H296.22L285.94 46.5322H285.629L275.426 77.1023H277.017L285.784 50.2177ZM285.086 68.4123H283.69L286.017 77.1023H287.414L285.086 68.4123ZM314.725 77.0247L314.803 75.7833C311.001 75.5247 307.975 73.947 305.725 71.0504C303.578 68.3606 302.505 65.1148 302.505 61.313C302.505 59.3215 302.828 57.5951 303.475 56.1339C304.121 54.6727 305.091 53.2567 306.384 51.8859C308.97 49.1703 312.203 47.8125 316.083 47.8125C318.436 47.8125 320.557 48.3168 322.445 49.3255C324.333 50.3341 325.872 51.7437 327.062 53.5541L327.993 52.817C326.7 50.8515 325.019 49.3125 322.949 48.2004C320.984 47.1401 318.76 46.6228 316.277 46.6487C314.182 46.6487 312.216 47.0043 310.38 47.7155C308.544 48.4268 306.927 49.5195 305.531 50.9937C304.134 52.4937 303.08 54.0454 302.369 55.649C301.658 57.2526 301.302 59.1405 301.302 61.313C301.328 65.4252 302.505 68.9427 304.832 71.8651C307.315 74.9945 310.613 76.7144 314.725 77.0247ZM317.092 77.0635C319.212 76.9342 321.152 76.43 322.911 75.5506C324.928 74.5161 326.622 73.0548 327.993 71.1668L327.101 70.3909C325.859 72.0979 324.294 73.4427 322.406 74.4256C320.777 75.2532 318.993 75.7187 317.053 75.8222L317.092 77.0635ZM338.002 64.2225L345.683 77.1023H347.196L338.778 62.9811L338.002 64.2225ZM338.157 61.8561L346.847 46.6486H345.295L334.355 65.9295V46.571H333.036V68.3735H334.355V68.3347L337.342 63.1363L338.157 61.8561ZM353.326 65.7743V47.6185H362.636V46.5322H352.239V65.7743H353.326ZM363.024 77.1023V76.0548H353.326V68.0244H354.877V66.9769H352.239V77.1023H363.024ZM376.602 67.8304C378.258 66.8993 379.525 65.5867 380.404 63.8928C381.283 62.1988 381.723 60.2785 381.723 58.1318V57.5887C381.723 54.4075 380.773 51.7695 378.872 49.6746C376.971 47.5797 374.262 46.5322 370.744 46.5322H368.068V58.8301C368.507 58.856 368.947 58.8689 369.387 58.8689V47.7737H370.667C373.848 47.7737 376.253 48.6982 377.883 50.5475C379.512 52.3967 380.327 54.7695 380.327 57.6663V58.093C380.327 60.9638 379.512 63.3174 377.883 65.1536C376.253 66.9897 373.848 67.908 370.667 67.908H369.387H368.068V69.1494C368.843 69.1753 369.361 69.1882 369.619 69.1882H370.744C372.529 69.1882 374.094 68.9167 375.438 68.3735L380.249 77.1023H381.801L376.602 67.8304Z" fill="white"/>
<path d="M145.853 46.5322H143.176V47.7737H144.922H145.775C148.956 47.7737 151.349 48.6918 152.952 50.5281C154.555 52.3643 155.357 54.7567 155.357 57.705V58.1318C155.357 61.0284 154.555 63.395 152.952 65.2312C151.349 67.0673 148.956 67.9856 145.775 67.9856H144.534H143.68H143.253H143.176V77.1023H144.534V69.2658H145.853C149.422 69.2658 152.131 68.2119 153.98 66.1041C155.829 63.9962 156.754 61.3517 156.754 58.1706V57.6663C156.754 54.4851 155.816 51.8343 153.941 49.7134C152.066 47.5925 149.37 46.5322 145.853 46.5322ZM170.332 67.8304C171.987 66.8993 173.255 65.5867 174.134 63.8928C175.013 62.1988 175.453 60.2785 175.453 58.1318V57.5887C175.453 54.4075 174.502 51.7695 172.601 49.6746C170.7 47.5797 167.991 46.5322 164.474 46.5322H161.797V58.8301C162.237 58.856 162.676 58.8689 163.116 58.8689V47.7737H164.396C167.577 47.7737 169.983 48.6982 171.612 50.5475C173.241 52.3967 174.056 54.7695 174.056 57.6663V58.093C174.056 60.9638 173.241 63.3174 171.612 65.1536C169.983 66.9897 167.577 67.908 164.396 67.908H163.116H161.797V69.1494C162.573 69.1753 163.09 69.1882 163.349 69.1882H164.474C166.258 69.1882 167.823 68.9167 169.168 68.3735L173.979 77.1023H175.53L170.332 67.8304ZM194.152 77.1023C198.445 77.1023 202.105 75.5893 205.131 72.5633C206.631 71.0892 207.762 69.4986 208.525 67.7916C209.288 66.0847 209.67 64.1449 209.67 61.9724C209.67 57.6534 208.157 54.0068 205.131 51.0324C202.105 48.084 198.368 46.597 193.919 46.571C191.178 46.5969 188.604 47.2823 186.199 48.6271C183.845 49.9979 181.97 51.8989 180.574 54.3299L181.699 54.9506C182.966 52.7006 184.686 50.9548 186.858 49.7134C189.005 48.472 191.359 47.8383 193.919 47.8124C198.057 47.8383 201.497 49.222 204.238 51.9635C206.98 54.6533 208.363 57.9894 208.389 61.9724C208.389 63.964 208.04 65.7419 207.342 67.3067C206.644 68.8715 205.622 70.3391 204.277 71.7099C201.51 74.4773 198.135 75.8609 194.152 75.8609C191.669 75.8609 189.419 75.3307 187.402 74.2703L186.82 75.3953C189.018 76.5333 191.462 77.1023 194.152 77.1023ZM215.76 77.1023V53.1661H217.312V52.0798H214.713V77.1023H215.76ZM225.071 47.6185V46.5322H214.713V47.6185H225.071ZM230.114 46.5322V77.1023H231.123V46.5322H230.114ZM247.533 47.0366L247.533 46.5322H236.166V47.7737H242.722V77.1023H244.08V47.7737H247.572C247.52 47.3598 247.507 47.1141 247.533 47.0366ZM248.542 46.5322V47.7737H250.675V46.5322H248.542ZM255.719 59.5284L255.719 77.1023H263.167C265.392 77.1023 267.15 76.3135 268.443 74.7358C269.736 73.1582 270.383 71.115 270.383 68.6063C270.383 67.9339 270.299 67.1645 270.131 66.298C269.963 65.4316 269.678 64.5911 269.277 63.7764C268.877 62.9617 268.333 62.2246 267.648 61.5651C266.963 60.9056 266.077 60.4465 264.991 60.1879C266.077 59.5155 266.866 58.6167 267.357 57.4917C267.849 56.3666 268.094 55.1834 268.094 53.942C268.094 51.5625 267.435 49.7328 266.116 48.4526C264.797 47.1723 262.999 46.5322 260.723 46.5322H255.719V58.5973H257.077L257.038 48.1228H260.84C262.986 48.1228 264.499 48.6853 265.379 49.8104C266.258 50.9354 266.698 52.3126 266.698 53.942C266.698 55.7007 266.297 57.0649 265.495 58.0348C264.693 59.0047 263.594 59.4896 262.197 59.4896H257.115L257.969 61.1966H263.167C264.228 61.1966 265.133 61.4358 265.883 61.9143C266.633 62.3927 267.247 62.994 267.726 63.7182C268.204 64.4424 268.56 65.2571 268.792 66.1622C269.025 67.0674 269.142 67.9468 269.142 68.8003C269.142 69.6279 269.025 70.4426 268.792 71.2443C268.56 72.0461 268.211 72.7638 267.745 73.3974C267.279 74.0311 266.672 74.5419 265.922 74.9298C265.172 75.3178 264.279 75.5117 263.245 75.5117H257.038L257.077 59.5284H255.719ZM285.784 50.2177C285.784 50.3729 286.243 51.8536 287.162 54.6597C288.08 57.4658 289.082 60.537 290.168 63.8734C291.254 67.2097 292.716 71.6195 294.552 77.1023H296.22L285.94 46.5322H285.629L275.426 77.1023H277.017L285.784 50.2177ZM285.086 68.4123H283.69L286.017 77.1023H287.414L285.086 68.4123ZM314.725 77.0247L314.803 75.7833C311.001 75.5247 307.975 73.947 305.725 71.0504C303.578 68.3606 302.505 65.1148 302.505 61.313C302.505 59.3215 302.828 57.5951 303.475 56.1339C304.121 54.6727 305.091 53.2567 306.384 51.8859C308.97 49.1703 312.203 47.8125 316.083 47.8125C318.436 47.8125 320.557 48.3168 322.445 49.3255C324.333 50.3341 325.872 51.7437 327.062 53.5541L327.993 52.817C326.7 50.8515 325.019 49.3125 322.949 48.2004C320.984 47.1401 318.76 46.6228 316.277 46.6487C314.182 46.6487 312.216 47.0043 310.38 47.7155C308.544 48.4268 306.927 49.5195 305.531 50.9937C304.134 52.4937 303.08 54.0454 302.369 55.649C301.658 57.2526 301.302 59.1405 301.302 61.313C301.328 65.4252 302.505 68.9427 304.832 71.8651C307.315 74.9945 310.613 76.7144 314.725 77.0247ZM317.092 77.0635C319.212 76.9342 321.152 76.43 322.911 75.5506C324.928 74.5161 326.622 73.0548 327.993 71.1668L327.101 70.3909C325.859 72.0979 324.294 73.4427 322.406 74.4256C320.777 75.2532 318.993 75.7187 317.053 75.8222L317.092 77.0635ZM338.002 64.2225L345.683 77.1023H347.196L338.778 62.9811L338.002 64.2225ZM338.157 61.8561L346.847 46.6486H345.295L334.355 65.9295V46.571H333.036V68.3735H334.355V68.3347L337.342 63.1363L338.157 61.8561ZM353.326 65.7743V47.6185H362.636V46.5322H352.239V65.7743H353.326ZM363.024 77.1023V76.0548H353.326V68.0244H354.877V66.9769H352.239V77.1023H363.024ZM376.602 67.8304C378.258 66.8993 379.525 65.5867 380.404 63.8928C381.283 62.1988 381.723 60.2785 381.723 58.1318V57.5887C381.723 54.4075 380.773 51.7695 378.872 49.6746C376.971 47.5797 374.262 46.5322 370.744 46.5322H368.068V58.8301C368.507 58.856 368.947 58.8689 369.387 58.8689V47.7737H370.667C373.848 47.7737 376.253 48.6982 377.883 50.5475C379.512 52.3967 380.327 54.7695 380.327 57.6663V58.093C380.327 60.9638 379.512 63.3174 377.883 65.1536C376.253 66.9897 373.848 67.908 370.667 67.908H369.387H368.068V69.1494C368.843 69.1753 369.361 69.1882 369.619 69.1882H370.744C372.529 69.1882 374.094 68.9167 375.438 68.3735L380.249 77.1023H381.801L376.602 67.8304Z" stroke="white" stroke-width="2" mask="url(#path-2-outside-1_1312_10)"/>
</g>
<defs>
<clipPath id="clip0_1312_10">
<rect width="381.8" height="124.111" fill="white"/>
</clipPath>
</defs>
</svg>
