<svg width="411" height="524" viewBox="0 0 411 524" fill="none" xmlns="http://www.w3.org/2000/svg">
<path d="M198.333 523.657C120.645 523.657 57.6665 515.301 57.6665 504.991C57.6665 494.681 120.645 486.324 198.333 486.324C276.021 486.324 339 494.681 339 504.991C339 515.301 276.021 523.657 198.333 523.657Z" fill="#F5E3FF"/>
<path d="M193 187.002C189 170.335 169.667 174.335 161.667 187.669C157.275 194.99 156.333 198.335 147 197.002C139 195.002 137 189.002 127.667 193.669C111 202.335 121.667 219.669 129.667 231.002C137 241.002 161 247.669 151 259.669C145.667 267.002 136.333 271.669 130.333 277.67C124.333 283.671 118.333 289.671 113 295.671C102.333 307.671 92.3334 319.005 85.6667 333.005C73.0001 358.338 65.6667 372.338 62.3334 409.005C56.1747 476.754 62.876 513.611 261.667 503.671C315 501.005 360.516 457.762 341 394.338C319.667 325.005 241 252.335 242.333 239.669C243.667 223.669 267.667 215.669 270.333 199.669C273.667 180.335 258.333 178.335 245.667 188.335C240.333 169.002 227.667 186.335 219 190.335C216.333 176.335 200.333 171.669 193 187.002Z" fill="white"/>
<path d="M193.804 186.781C190.935 176.649 182.296 173.013 172.671 176.866C168.196 178.658 164.628 182.088 161.813 185.902C159.833 188.588 158.591 191.696 156.4 194.246C152.652 198.608 145.391 195.897 141.352 193.728C137.412 191.612 133.684 190.113 129.276 192.056C123.808 194.464 119.617 198.021 118.268 204.004C116.049 213.828 124.477 226.658 130.692 233.488C134.26 237.41 139.22 240.184 143.528 243.184C146.291 245.106 148.98 247.166 151.045 249.852C154.509 254.357 150.981 258.634 147.901 262.07C142.665 267.914 135.424 271.686 129.744 277.081C121.977 284.457 114.735 292.414 107.665 300.449C87.6813 323.161 72.3226 351.682 65.5666 381.342C61.4479 399.42 59.6626 419.076 60.2119 437.685C60.5319 448.565 62.4333 459.562 67.8919 469.113C83.2613 496.005 121.499 500.969 149.076 503.777C180.739 507.004 212.795 506.453 244.551 505.264C259.992 504.686 274.949 504.093 289.719 499.168C301.551 495.222 312.451 488.741 321.687 480.386C341.551 462.414 349.004 435.921 345.409 409.86C341.147 378.972 322.943 349.936 305.629 324.753C290.055 302.104 272.265 281.188 255.341 259.565C251.116 254.166 245.037 247.734 243.261 240.898C240.416 229.938 259.96 217.813 265.849 210.712C271.557 203.829 274.969 190.898 267.501 183.997C265.035 181.717 260.949 181.213 257.777 181.785C255.301 182.233 253.049 183.028 250.776 184.081C249.304 184.762 247.952 185.686 246.612 186.59C246.024 186.988 244.601 183.25 244.353 182.76C239.521 173.249 228.893 182.478 223.735 186.34C221.336 188.134 220.011 190.286 218.919 186.938C218.245 184.869 217.007 183.105 215.669 181.426C213.136 178.245 208.413 176.08 204.331 176.716C198.535 177.62 194.92 181.576 192.28 186.582C191.779 187.532 193.219 188.374 193.72 187.422C200.432 174.697 214.919 176.556 218.196 190.557C218.325 191.108 218.96 191.289 219.42 191.056C223.297 189.088 226.597 186.177 230.121 183.664C232.085 182.262 234.161 181.076 236.484 180.386C241.604 178.868 243.729 184.912 244.863 188.557C245.008 189.024 245.639 189.392 246.087 189.056C251.464 185.021 259 181.09 265.592 184.662C273.808 189.116 269.443 202.768 265.457 208.502C258.448 218.589 245.757 224.272 242.012 236.622C240.36 242.073 243.943 246.718 246.889 251.002C252.585 259.282 259.115 267.02 265.421 274.833C284.919 298.992 304.179 323.421 319.949 350.232C336.268 377.972 350.432 410.649 342.273 443.292C335.121 471.906 310.527 491.813 282.972 499.488C266.155 504.172 247.964 503.566 230.659 504.054C213.817 504.529 196.963 504.604 180.121 504.077C156.549 503.336 132.493 501.576 109.708 495.11C96.3106 491.309 82.8799 485.282 73.6799 474.481C66.1306 465.617 63.0919 454.117 62.1546 442.736C60.7613 425.814 62.7239 407.922 65.3599 391.27C70.4213 359.28 86.2933 327.766 107.291 303.408C113.703 295.969 120.408 288.829 127.328 281.861C133.655 275.488 141.071 270.66 147.681 264.645C156.049 257.032 155.536 250.33 146.868 243.57C143 240.554 138.761 238.048 134.892 235.028C130.273 231.422 127.224 226.206 124.355 221.186C121.245 215.746 118.752 209.42 120.179 203.1C121.107 198.99 124.668 196.341 128.087 194.389C133.212 191.461 137.303 193.444 141.836 195.878C149.701 200.102 156.276 198.292 160.68 190.981C164.435 184.752 168.611 179.833 175.751 177.518C183.696 174.942 190.055 179.657 192.196 187.224C192.489 188.256 194.097 187.817 193.804 186.781Z" fill="#161316"/>
<path d="M146.368 243.037C152.337 238.072 165.04 237.04 172.318 236.48C180.66 235.839 189.326 236.411 197.677 236.749C205.818 237.08 213.861 238.257 222.028 238.133C229.193 238.024 235.974 236.227 243 235.139C244.06 234.975 243.608 233.369 242.557 233.532C233.158 234.988 224.352 236.756 214.766 236.367C205.713 236 196.742 235.064 187.669 234.871C179.082 234.688 170.802 234.625 162.326 236.159C156.737 237.169 149.681 238.123 145.189 241.859C144.361 242.547 145.548 243.719 146.368 243.037Z" fill="#161316"/>
<path d="M151.556 248.584C159.092 246.783 166.463 244.843 174.233 244.347C182.424 243.823 190.709 245.204 198.889 245.503C207.128 245.804 215.432 245.582 223.667 245.28C230.193 245.043 236.751 244.89 243 242.807C244.015 242.468 243.58 240.859 242.557 241.199C235.693 243.488 228.359 243.444 221.196 243.704C212.952 244.006 204.652 244.047 196.408 243.746C188.16 243.444 180.049 242.307 171.779 242.836C164.768 243.284 157.909 245.352 151.112 246.978C150.068 247.227 150.511 248.833 151.556 248.584Z" fill="#161316"/>
<path d="M153.889 255.947C161.572 256.653 168.864 255.117 176.397 253.841C185.152 252.36 193.793 253.011 202.564 253.848C215.663 255.099 234.383 257.675 246.309 250.389C247.225 249.829 246.388 248.389 245.469 248.949C238.943 252.936 229.564 253.096 222.183 253.275C214.819 253.451 207.429 252.647 200.112 251.948C192.908 251.26 185.872 250.999 178.667 251.836C170.313 252.808 162.377 255.06 153.889 254.28C152.82 254.183 152.829 255.849 153.889 255.947Z" fill="#161316"/>
<path d="M150.697 240.424C152 242.556 153.548 244.531 154.697 246.756C155.191 247.712 156.628 246.868 156.136 245.916C154.987 243.691 153.44 241.715 152.136 239.583C151.577 238.667 150.135 239.504 150.697 240.424Z" fill="#161316"/>
<path d="M160.947 237.724C161.748 239.875 163.325 241.828 163.5 244.17C163.58 245.235 165.247 245.243 165.167 244.17C164.975 241.594 163.429 239.631 162.553 237.282C162.181 236.283 160.571 236.715 160.947 237.724Z" fill="#161316"/>
<path d="M170.78 236.639C171.149 238.775 172.013 240.811 172 243.002C171.993 244.078 173.66 244.077 173.667 243.002C173.681 240.653 172.783 238.483 172.387 236.197C172.204 235.139 170.597 235.589 170.78 236.639Z" fill="#161316"/>
<path d="M153.221 245.64C153.58 245.566 153.944 245.535 154.305 245.474C155.363 245.291 154.913 243.686 153.861 243.866C153.501 243.928 153.137 243.959 152.779 244.032C151.725 244.251 152.172 245.856 153.221 245.64Z" fill="#161316"/>
<path d="M151.305 243.473C151.699 243.38 152.077 243.233 152.472 243.14C153.517 242.892 153.073 241.285 152.028 241.532C151.635 241.627 151.256 241.772 150.861 241.865C149.816 242.113 150.26 243.72 151.305 243.473Z" fill="#161316"/>
<path d="M161.333 243.086C161.972 243.157 162.608 243.168 163.251 243.169C164.325 243.169 164.325 241.504 163.251 241.502C162.608 241.502 161.972 241.49 161.333 241.418C160.267 241.301 160.277 242.968 161.333 243.086Z" fill="#161316"/>
<path d="M160.751 240.587C161.388 240.516 162.025 240.503 162.667 240.503C163.741 240.502 163.741 238.836 162.667 238.836C162.025 238.838 161.388 238.85 160.751 238.919C159.695 239.036 159.683 240.704 160.751 240.587Z" fill="#161316"/>
<path d="M170.333 241.586C170.835 241.575 171.332 241.516 171.833 241.503C172.907 241.476 172.909 239.81 171.833 239.836C171.332 239.848 170.835 239.907 170.333 239.92C169.26 239.946 169.257 241.614 170.333 241.586Z" fill="#161316"/>
<path d="M169.667 239.252C170.333 239.325 170.997 239.336 171.667 239.336C172.741 239.337 172.741 237.669 171.667 237.669C170.997 237.668 170.333 237.659 169.667 237.585C168.599 237.469 168.611 239.137 169.667 239.252Z" fill="#161316"/>
<path d="M181.78 236.14C182.239 238.344 182.093 240.603 182.084 242.836C182.079 243.912 183.745 243.911 183.751 242.836C183.761 240.444 183.877 238.055 183.387 235.697C183.168 234.645 181.561 235.092 181.78 236.14Z" fill="#161316"/>
<path d="M180.779 240.974C181.321 241.078 181.864 241.155 182.417 241.17C183.492 241.198 183.489 239.531 182.417 239.503C182.011 239.492 181.62 239.443 181.221 239.366C180.171 239.164 179.724 240.771 180.779 240.974Z" fill="#161316"/>
<path d="M180.945 238.806C181.361 238.89 181.779 238.972 182.195 239.056C183.245 239.267 183.692 237.66 182.639 237.45C182.221 237.366 181.805 237.283 181.388 237.199C180.339 236.99 179.892 238.596 180.945 238.806Z" fill="#161316"/>
<path d="M191.333 236.503C191.538 238.632 192.228 241.303 191.447 243.365C191.064 244.371 192.676 244.803 193.053 243.807C193.9 241.576 193.221 238.8 193 236.503C192.897 235.443 191.23 235.433 191.333 236.503Z" fill="#161316"/>
<path d="M190.445 241.972C190.917 242.053 191.389 242.141 191.861 242.222C192.913 242.402 193.363 240.796 192.305 240.616C191.832 240.536 191.361 240.446 190.888 240.366C189.837 240.186 189.388 241.793 190.445 241.972Z" fill="#161316"/>
<path d="M190.361 239.305C190.907 239.399 191.447 239.488 192 239.503C193.076 239.531 193.073 237.864 192 237.836C191.595 237.825 191.204 237.767 190.805 237.699C189.753 237.521 189.304 239.128 190.361 239.305Z" fill="#161316"/>
<path d="M200.28 237.14C200.7 239.416 200.503 241.685 200.113 243.948C199.932 245 201.539 245.448 201.72 244.39C202.163 241.818 202.363 239.28 201.887 236.697C201.692 235.641 200.085 236.09 200.28 237.14Z" fill="#161316"/>
<path d="M200 242.753C200.333 242.753 200.667 242.753 201 242.753C202.075 242.753 202.075 241.085 201 241.085C200.667 241.085 200.333 241.085 200 241.085C198.925 241.085 198.925 242.753 200 242.753Z" fill="#161316"/>
<path d="M199.445 240.307C199.992 240.395 200.529 240.419 201.084 240.42C202.157 240.421 202.157 238.755 201.084 238.752C200.687 238.752 200.281 238.763 199.888 238.699C198.837 238.528 198.387 240.133 199.445 240.307Z" fill="#161316"/>
<path d="M209.417 237.585C209.399 239.806 209.172 242.001 208.863 244.197C208.715 245.249 210.321 245.701 210.471 244.639C210.8 242.297 211.064 239.955 211.084 237.585C211.092 236.51 209.425 236.511 209.417 237.585Z" fill="#161316"/>
<path d="M208.528 242.556C209.03 242.651 209.469 242.651 209.972 242.556C211.028 242.359 210.578 240.752 209.528 240.949C209.342 240.993 209.157 240.993 208.972 240.949C207.921 240.752 207.472 242.359 208.528 242.556Z" fill="#161316"/>
<path d="M208.445 240.556C208.861 240.64 209.279 240.722 209.695 240.806C210.745 241.017 211.192 239.41 210.139 239.198C209.721 239.116 209.305 239.032 208.888 238.949C207.839 238.74 207.392 240.345 208.445 240.556Z" fill="#161316"/>
<path d="M218.78 237.891C219.139 239.929 219.076 241.989 218.78 244.031C218.628 245.083 220.233 245.535 220.387 244.473C220.729 242.117 220.8 239.801 220.387 237.448C220.201 236.391 218.595 236.84 218.78 237.891Z" fill="#161316"/>
<path d="M217.333 242.753C218.054 242.825 218.776 242.836 219.5 242.836C220.574 242.836 220.574 241.171 219.5 241.169C218.776 241.169 218.054 241.159 217.333 241.085C216.264 240.979 216.274 242.647 217.333 242.753Z" fill="#161316"/>
<path d="M217.667 240.669C218.223 240.669 218.777 240.669 219.333 240.669C220.408 240.669 220.408 239.002 219.333 239.002C218.777 239.002 218.223 239.002 217.667 239.002C216.592 239.002 216.592 240.669 217.667 240.669Z" fill="#161316"/>
<path d="M227.613 237.807C228.251 239.896 228.144 241.916 227.696 244.031C227.473 245.08 229.081 245.525 229.304 244.473C229.811 242.079 229.944 239.732 229.22 237.364C228.908 236.34 227.299 236.777 227.613 237.807Z" fill="#161316"/>
<path d="M227.084 242.252C227.612 242.242 228.139 242.181 228.667 242.169C229.74 242.146 229.743 240.48 228.667 240.502C228.139 240.513 227.612 240.574 227.084 240.586C226.01 240.609 226.008 242.276 227.084 242.252Z" fill="#161316"/>
<path d="M226.833 240.253C227.396 240.183 227.937 240.183 228.5 240.253C229.565 240.387 229.552 238.717 228.5 238.585C227.937 238.516 227.396 238.516 226.833 238.585C225.781 238.717 225.768 240.387 226.833 240.253Z" fill="#161316"/>
<path d="M235.696 236.423C236.581 238.462 236.549 240.544 236.196 242.699C236.025 243.75 237.631 244.199 237.804 243.142C238.237 240.495 238.216 238.074 237.137 235.583C236.709 234.599 235.275 235.448 235.696 236.423Z" fill="#161316"/>
<path d="M235.833 241.502C236.224 241.486 236.609 241.433 237 241.418C238.072 241.382 238.076 239.715 237 239.753C236.609 239.766 236.224 239.819 235.833 239.835C234.763 239.881 234.757 241.546 235.833 241.502Z" fill="#161316"/>
<path d="M235.472 238.805C235.924 238.717 236.369 238.629 236.805 238.472C237.808 238.113 237.376 236.502 236.361 236.865C235.927 237.021 235.48 237.11 235.028 237.198C233.973 237.405 234.421 239.012 235.472 238.805Z" fill="#161316"/>
<path d="M158.197 247.089C159.688 249.467 159.744 252.281 159.75 255.003C159.752 256.077 161.418 256.077 161.417 255.003C161.409 251.989 161.282 248.873 159.636 246.249C159.066 245.341 157.624 246.176 158.197 247.089Z" fill="#161316"/>
<path d="M157.917 251.503C158.665 251.43 159.415 251.42 160.167 251.42C161.241 251.419 161.241 249.752 160.167 249.752C159.415 249.754 158.665 249.762 157.917 249.836C156.857 249.942 156.847 251.61 157.917 251.503Z" fill="#161316"/>
<path d="M157.805 249.472C158.341 249.397 158.879 249.321 159.417 249.252C159.867 249.194 160.251 248.917 160.251 248.42C160.251 248.008 159.868 247.528 159.417 247.585C158.731 247.673 158.047 247.769 157.361 247.866C156.912 247.93 156.671 248.496 156.78 248.89C156.912 249.369 157.356 249.537 157.805 249.472Z" fill="#161316"/>
<path d="M166.863 245.057C167.972 248.005 167.989 250.983 167.833 254.087C167.779 255.161 169.445 255.156 169.5 254.087C169.664 250.837 169.628 247.695 168.471 244.615C168.096 243.617 166.484 244.049 166.863 245.057Z" fill="#161316"/>
<path d="M165.917 252.169C166.833 252.244 167.757 252.16 168.639 251.889C169.663 251.575 169.225 249.967 168.195 250.283C167.444 250.513 166.699 250.565 165.917 250.503C164.844 250.416 164.853 252.084 165.917 252.169Z" fill="#161316"/>
<path d="M166.5 249.252C167.197 249.234 167.885 249.102 168.584 249.085C169.656 249.061 169.658 247.394 168.584 247.418C167.885 247.436 167.197 247.568 166.5 247.585C165.427 247.613 165.424 249.28 166.5 249.252Z" fill="#161316"/>
<path d="M176.447 243.973C177.489 246.736 176.96 249.472 176.917 252.336C176.9 253.412 178.567 253.409 178.584 252.336C178.629 249.316 179.151 246.437 178.053 243.532C177.677 242.536 176.065 242.966 176.447 243.973Z" fill="#161316"/>
<path d="M175.417 250.669C176.029 250.668 176.64 250.662 177.251 250.586C178.303 250.456 178.315 248.788 177.251 248.92C176.64 248.994 176.029 249.002 175.417 249.002C174.341 249.004 174.341 250.669 175.417 250.669Z" fill="#161316"/>
<path d="M176 247.92C176.444 247.92 176.889 247.92 177.333 247.92C178.408 247.92 178.408 246.253 177.333 246.253C176.889 246.253 176.444 246.253 176 246.253C174.925 246.253 174.925 247.92 176 247.92Z" fill="#161316"/>
<path d="M187.167 244.752C187.468 247.033 187.495 249.302 186.863 251.532C186.569 252.568 188.179 253.006 188.471 251.973C189.14 249.606 189.153 247.178 188.833 244.752C188.695 243.702 187.027 243.69 187.167 244.752Z" fill="#161316"/>
<path d="M185.833 250.17C186.5 250.252 187.167 250.336 187.833 250.42C188.897 250.553 188.885 248.885 187.833 248.753C187.167 248.669 186.5 248.587 185.833 248.503C184.769 248.371 184.781 250.038 185.833 250.17Z" fill="#161316"/>
<path d="M186.333 248.336C186.896 248.267 187.437 248.267 188 248.336C189.064 248.47 189.052 246.802 188 246.67C187.437 246.599 186.896 246.599 186.333 246.67C185.281 246.802 185.269 248.47 186.333 248.336Z" fill="#161316"/>
<path d="M196.113 245.557C196.491 247.684 196.489 249.891 195.78 251.948C195.428 252.968 197.039 253.4 197.387 252.391C198.195 250.048 198.149 247.53 197.72 245.115C197.532 244.058 195.927 244.507 196.113 245.557Z" fill="#161316"/>
<path d="M195.028 250.223C195.548 250.308 196.057 250.335 196.584 250.336C197.659 250.337 197.659 248.671 196.584 248.669C196.213 248.668 195.837 248.676 195.472 248.616C194.42 248.444 193.971 250.049 195.028 250.223Z" fill="#161316"/>
<path d="M195 248.169C195.444 248.169 195.889 248.169 196.333 248.169C197.408 248.169 197.408 246.502 196.333 246.502C195.889 246.502 195.444 246.502 195 246.502C193.925 246.502 193.925 248.169 195 248.169Z" fill="#161316"/>
<path d="M206.084 245.336C206.215 247.71 206.021 250.062 205.029 252.25C204.591 253.22 206.028 254.068 206.471 253.091C207.587 250.62 207.899 248.027 207.751 245.336C207.692 244.268 206.024 244.262 206.084 245.336Z" fill="#161316"/>
<path d="M204.695 250.89C205.075 250.963 205.447 251 205.833 251.003C206.909 251.01 206.908 249.344 205.833 249.336C205.595 249.335 205.372 249.328 205.139 249.283C204.088 249.08 203.64 250.686 204.695 250.89Z" fill="#161316"/>
<path d="M205.084 248.836C205.444 248.836 205.805 248.836 206.167 248.836C207.241 248.836 207.241 247.169 206.167 247.169C205.805 247.169 205.444 247.169 205.084 247.169C204.009 247.169 204.009 248.836 205.084 248.836Z" fill="#161316"/>
<path d="M214.613 245.724C215.435 248.356 215.075 250.821 214.447 253.448C214.196 254.493 215.804 254.936 216.053 253.89C216.751 250.976 217.131 248.197 216.22 245.281C215.901 244.258 214.292 244.694 214.613 245.724Z" fill="#161316"/>
<path d="M213.861 252.056C214.522 252.148 215.161 252.184 215.805 251.972C216.821 251.642 216.386 250.031 215.361 250.367C215.014 250.48 214.668 250.5 214.305 250.45C213.856 250.388 213.412 250.552 213.28 251.032C213.172 251.426 213.412 251.994 213.861 252.056Z" fill="#161316"/>
<path d="M213.779 249.223C214.355 249.304 214.919 249.336 215.5 249.336C216.576 249.339 216.575 247.671 215.5 247.669C215.075 247.668 214.644 247.675 214.221 247.616C213.772 247.553 213.328 247.719 213.196 248.199C213.088 248.593 213.328 249.16 213.779 249.223Z" fill="#161316"/>
<path d="M224.363 245.308C225.324 247.781 225.153 250.816 224.113 253.249C223.696 254.225 225.132 255.076 225.553 254.09C226.764 251.258 227.101 247.777 225.971 244.864C225.585 243.873 223.972 244.305 224.363 245.308Z" fill="#161316"/>
<path d="M223.779 251.972C224.577 252.084 225.213 251.951 225.84 251.425C226.664 250.733 225.477 249.561 224.66 250.248C224.54 250.347 224.376 250.388 224.221 250.367C223.772 250.304 223.328 250.468 223.196 250.948C223.088 251.341 223.328 251.912 223.779 251.972Z" fill="#161316"/>
<path d="M223.751 249.336C224.312 249.266 224.855 249.266 225.417 249.336C226.481 249.47 226.469 247.802 225.417 247.67C224.855 247.599 224.312 247.599 223.751 247.67C222.697 247.802 222.685 249.47 223.751 249.336Z" fill="#161316"/>
<path d="M232.947 245.173C234.132 246.956 235.112 250.119 234.113 252.165C233.644 253.127 235.083 253.973 235.553 253.007C236.829 250.391 235.933 246.661 234.387 244.332C233.795 243.443 232.351 244.276 232.947 245.173Z" fill="#161316"/>
<path d="M232.972 248.139C233.151 248.109 233.661 247.897 233.829 247.971C234.803 248.406 235.649 246.971 234.671 246.533C233.919 246.197 233.303 246.397 232.528 246.531C231.472 246.718 231.92 248.325 232.972 248.139Z" fill="#161316"/>
<path d="M233.721 250.389C234.347 250.232 234.959 250.052 235.555 249.806C235.973 249.634 236.268 249.26 236.137 248.782C236.028 248.384 235.532 248.026 235.112 248.2C234.516 248.446 233.903 248.624 233.279 248.783C232.237 249.047 232.68 250.655 233.721 250.389Z" fill="#161316"/>
<path d="M241.139 246.223C241.849 246.048 242.512 245.732 243.221 245.556C244.264 245.298 243.821 243.691 242.779 243.95C242.068 244.126 241.405 244.44 240.695 244.616C239.652 244.875 240.095 246.482 241.139 246.223Z" fill="#161316"/>
<path d="M242.639 248.306C243.428 248.03 244.183 247.666 244.972 247.389C245.979 247.037 245.545 245.428 244.528 245.782C243.739 246.057 242.984 246.422 242.195 246.698C241.188 247.05 241.621 248.662 242.639 248.306Z" fill="#161316"/>
<path d="M245.667 246.254C246.667 245.92 247.833 245.754 248.917 245.503C253.584 244.419 258.167 242.754 262.833 241.586C265.251 240.92 276.751 238.17 273.917 233.919C272.584 232.003 268.833 232.503 267 232.836C264.5 233.336 262.167 234.252 259.917 235.419C255 237.836 248.584 240.67 245.167 245.087M243 241.919C246.667 233.67 255.667 228.336 264 226.086C268.917 224.752 273.917 224.252 278.5 227.003C281.251 228.503 282.584 231.086 282.251 234.252C281.5 240.836 273.584 245.003 268 246.752C263.167 248.254 258.167 248.754 253.084 248.754C251 248.754 248.584 248.503 246.667 249.003" fill="white"/>
<path d="M243.72 242.338C246.696 236.41 251.444 232.494 257.253 229.485C263.421 226.291 284.077 221.359 281.115 235.626C279.78 242.059 270.723 245.138 265.349 246.618C259.081 248.343 252.751 247.318 246.445 248.199C245.384 248.347 245.837 249.953 246.888 249.805C257.25 248.357 266.506 249.627 275.928 244.026C281.342 240.807 284.925 234.87 281.822 228.869C278.373 222.197 267.461 224.196 261.984 225.812C253.674 228.264 246.193 233.707 242.28 241.498C241.8 242.454 243.237 243.299 243.72 242.338Z" fill="#161316"/>
<path d="M245.888 247.055C253.399 245.142 261.032 243.321 268.371 240.79C270.777 239.961 276.053 237.983 275.089 234.477C272.283 224.273 247.751 240.807 244.577 244.497C243.88 245.307 245.055 246.491 245.756 245.675C248.972 241.935 253.181 239.669 257.533 237.505C260.095 236.231 262.656 234.987 265.376 234.089C266.66 233.702 267.972 233.463 269.311 233.375C272.549 233.054 273.648 236.261 270.945 237.867C268.448 239.351 265.397 240.031 262.612 240.782C256.879 242.327 251.197 243.983 245.445 245.449C244.404 245.715 244.847 247.321 245.888 247.055Z" fill="#161316"/>
<path d="M246.613 236.922C247.288 238.296 247.823 239.733 248.529 241.089C249.028 242.044 250.465 241.2 249.971 240.249C249.263 238.892 248.727 237.454 248.053 236.082C247.58 235.117 246.141 235.962 246.613 236.922Z" fill="#161316"/>
<path d="M256.196 229.557C256.788 231.481 257.129 233.648 258.28 235.34C258.881 236.223 260.325 235.389 259.72 234.499C258.651 232.929 258.353 230.9 257.804 229.115C257.488 228.091 255.879 228.528 256.196 229.557Z" fill="#161316"/>
<path d="M271.447 225.53C271.045 227.542 270.076 229.368 269.833 231.418C269.707 232.485 271.376 232.473 271.5 231.418C271.723 229.534 272.684 227.829 273.053 225.973C273.263 224.924 271.656 224.477 271.447 225.53Z" fill="#161316"/>
<path d="M274.861 235.89C276.895 236.223 278.944 236.331 281 236.419C282.076 236.467 282.071 234.799 281 234.752C279.095 234.67 277.189 234.591 275.305 234.283C274.253 234.111 273.804 235.716 274.861 235.89Z" fill="#161316"/>
<path d="M271.113 239.589C271.941 240.851 272.629 242.192 273.363 243.507C273.888 244.445 275.328 243.605 274.804 242.667C274.068 241.351 273.38 240.009 272.553 238.749C271.967 237.855 270.523 238.689 271.113 239.589Z" fill="#161316"/>
<path d="M261.029 242.807C261.299 244.334 261.888 245.795 262.084 247.335C262.216 248.387 263.885 248.399 263.751 247.335C263.535 245.639 262.932 244.042 262.637 242.365C262.451 241.306 260.845 241.755 261.029 242.807Z" fill="#161316"/>
<path d="M258.833 233.919C259.575 233.905 260.245 233.777 260.92 233.472C261.9 233.031 261.051 231.596 260.08 232.033C259.685 232.211 259.26 232.245 258.833 232.252C257.76 232.273 257.757 233.94 258.833 233.919Z" fill="#161316"/>
<path d="M258.805 231.305C259.305 231.097 259.787 230.934 260.333 230.918C261.407 230.889 261.409 229.222 260.333 229.251C259.636 229.271 259.004 229.43 258.361 229.698C257.943 229.874 257.647 230.243 257.78 230.723C257.889 231.119 258.385 231.481 258.805 231.305Z" fill="#161316"/>
<path d="M250.004 239.472C250.648 239.149 251.292 238.825 251.92 238.472C252.857 237.945 252.017 236.505 251.08 237.033C250.451 237.386 249.807 237.71 249.163 238.033C248.201 238.514 249.045 239.952 250.004 239.472Z" fill="#161316"/>
<path d="M272.028 230.389C272.641 230.486 273.247 230.636 273.861 230.722C274.311 230.786 274.755 230.62 274.887 230.14C274.996 229.746 274.755 229.18 274.305 229.116C273.689 229.028 273.085 228.88 272.472 228.782C271.42 228.614 270.969 230.221 272.028 230.389Z" fill="#161316"/>
<path d="M272.945 228.138C273.393 228.24 273.83 228.373 274.278 228.472C275.325 228.706 275.77 227.1 274.721 226.865C274.273 226.765 273.836 226.632 273.388 226.532C272.341 226.298 271.896 227.905 272.945 228.138Z" fill="#161316"/>
<path d="M276.529 235.916C276.209 236.461 275.852 236.957 275.411 237.413C274.665 238.186 275.842 239.366 276.589 238.592C277.125 238.037 277.58 237.42 277.971 236.756C278.516 235.828 277.074 234.989 276.529 235.916Z" fill="#161316"/>
<path d="M271.087 241.889C271.427 241.694 271.775 241.534 272.139 241.389C273.123 240.994 272.693 239.381 271.695 239.782C271.199 239.982 270.711 240.185 270.247 240.449C269.312 240.981 270.151 242.421 271.087 241.889Z" fill="#161316"/>
<path d="M259 246.253C259.721 246.179 260.443 246.169 261.167 246.169C262.241 246.167 262.241 244.502 261.167 244.502C260.443 244.502 259.721 244.514 259 244.585C257.941 244.693 257.931 246.361 259 246.253Z" fill="#161316"/>
<path d="M247.417 249.503C247.751 250.836 248.584 251.587 249.584 252.419C250.584 253.254 251.084 254.17 251.833 255.252C253.751 257.67 256.167 259.752 258.251 262.087C262.417 266.67 267 270.586 271.833 274.503C280.917 281.755 292.917 283.922 304.251 282.588C306.084 282.422 309.251 282.588 310.417 280.839C311.084 279.839 311.333 276.419 310.167 275.919C309.667 275.67 307.667 276.17 307.084 276.17C305.833 276.336 304.667 276.252 303.417 276.252C300.5 276.17 297.667 276.252 294.833 275.67C290.167 274.836 285.584 274.003 281.084 272.587C275.5 270.836 270.667 267.42 266.167 263.67C264.333 262.087 262.917 259.919 261 258.503C259.333 257.252 257.917 256.336 256.584 254.752C255.167 253.087 254 250.92 252.667 249.336" fill="white"/>
<path d="M246.696 249.922C249.461 255.381 255.087 259.926 259.243 264.363C264.339 269.805 270.329 275.047 276.805 278.775C282.512 282.061 289.197 283.307 295.681 283.741C298.8 283.949 307.396 284.739 310.092 282.265C311.513 280.962 312.849 277.693 311.295 275.937C310.516 275.057 310.461 275.102 309.275 275.039C305.983 274.869 302.448 275.409 299.093 275.315C280.056 274.783 264.356 263.654 253.387 248.915C252.752 248.063 251.305 248.893 251.947 249.755C258.075 257.989 265.756 265.446 274.676 270.703C283.807 276.085 296.659 277.595 307.084 277.003C309.676 276.855 311.363 280.051 308.048 281.359C305.909 282.201 302.243 281.957 299.975 282.087C292.229 282.537 284.552 280.795 277.647 277.335C271.803 274.407 266.725 269.317 262.04 264.819C257.405 260.371 251.071 254.878 248.137 249.082C247.651 248.122 246.212 248.966 246.696 249.922Z" fill="#161316"/>
<path d="M254.756 257.676C255.52 257.056 256.229 256.38 257.087 255.889C258.02 255.356 257.181 253.916 256.247 254.45C255.267 255.01 254.449 255.789 253.577 256.497C252.743 257.174 253.929 258.346 254.756 257.676Z" fill="#161316"/>
<path d="M263.089 266.092C263.767 265.468 264.313 264.614 265.171 264.223C266.147 263.776 265.3 262.34 264.329 262.784C263.333 263.24 262.695 264.19 261.911 264.914C261.12 265.644 262.301 266.82 263.089 266.092Z" fill="#161316"/>
<path d="M271.589 273.592C272.495 272.478 273.021 271.119 273.923 270.008C274.593 269.183 273.421 267.996 272.744 268.831C271.839 269.944 271.312 271.304 270.411 272.414C269.74 273.24 270.912 274.427 271.589 273.592Z" fill="#161316"/>
<path d="M284.22 279.727C284.633 278.118 284.887 276.419 285.637 274.924C286.116 273.966 284.679 273.122 284.196 274.083C283.376 275.72 283.065 277.523 282.613 279.283C282.347 280.326 283.953 280.767 284.22 279.727Z" fill="#161316"/>
<path d="M296.667 277.004C296.787 278.889 296.352 280.722 296.167 282.588C296.061 283.657 297.728 283.646 297.833 282.588C298.019 280.72 298.453 278.892 298.333 277.004C298.265 275.936 296.599 275.929 296.667 277.004Z" fill="#161316"/>
<path d="M298.5 281.505C299.029 281.52 299.528 281.547 300.055 281.475C300.507 281.415 300.745 280.843 300.637 280.451C300.504 279.969 300.061 279.807 299.612 279.868C299.251 279.917 298.863 279.848 298.5 279.839C297.424 279.808 297.427 281.476 298.5 281.505Z" fill="#161316"/>
<path d="M298.5 279.337C299.28 279.235 300.045 279.027 300.833 279.003C301.907 278.973 301.909 277.305 300.833 277.337C300.037 277.359 299.284 277.567 298.5 277.67C298.049 277.729 297.667 278.003 297.667 278.503C297.667 278.914 298.048 279.397 298.5 279.337Z" fill="#161316"/>
<path d="M284.528 279.391C285.236 279.643 285.964 279.812 286.695 279.975C287.743 280.208 288.188 278.602 287.139 278.367C286.407 278.203 285.679 278.035 284.972 277.784C283.957 277.42 283.524 279.032 284.528 279.391Z" fill="#161316"/>
<path d="M284.945 277.473C285.627 277.653 286.285 277.893 286.945 278.14C287.953 278.519 288.385 276.907 287.388 276.532C286.729 276.285 286.071 276.045 285.388 275.865C284.348 275.592 283.907 277.2 284.945 277.473Z" fill="#161316"/>
<path d="M271.913 273.138C272.501 273.468 273.105 273.757 273.663 274.138C274.552 274.748 275.385 273.304 274.504 272.7C273.947 272.318 273.343 272.028 272.753 271.7C271.813 271.176 270.973 272.616 271.913 273.138Z" fill="#161316"/>
<path d="M263.829 265.638C264.152 265.88 264.475 266.112 264.829 266.305C265.773 266.821 266.613 265.382 265.671 264.866C265.316 264.672 264.993 264.442 264.671 264.2C263.808 263.556 262.979 265.004 263.829 265.638Z" fill="#161316"/>
<path d="M255.411 257.592C255.759 258.001 256.159 258.34 256.577 258.675C257.408 259.341 258.593 258.169 257.756 257.497C257.339 257.161 256.937 256.824 256.589 256.413C255.892 255.593 254.719 256.777 255.411 257.592Z" fill="#161316"/>
<path d="M253.167 249.752C254.667 252.085 256.833 253.503 259 255.169C262.084 257.503 265.167 259.752 268.333 262.003C271.417 264.336 274.917 265.836 278.417 267.336C281.584 268.669 284.417 270.003 287.833 270.585C291.084 271.169 294.333 271.503 297.667 271.169C299.751 271.003 301.557 270.559 304.5 269.92C309.919 268.744 311.001 268.559 310.779 264.78C310.583 261.451 301.166 263.503 299.25 263.753C294.084 264.587 289.584 263.753 284.584 262.336C282.166 261.587 280.084 260.169 277.75 259.169C275.584 258.252 273.251 257.585 271 256.836C267.833 255.836 264.917 254.669 262.084 253.003C260.5 252.085 259.084 251.169 257.917 249.752C257.584 249.336 257.251 248.753 256.833 248.503" fill="white"/>
<path d="M252.577 250.341C256.535 255.439 262.72 259.012 267.913 262.723C273.117 266.441 279.512 269.088 285.625 270.956C291.136 272.64 297.145 272.329 302.705 271.164C304.779 270.731 310.995 270.419 311.457 267.233C312.439 260.472 305.177 261.969 300.533 262.707C292.301 264.016 285.539 261.941 278.171 258.449C270.861 254.987 263.028 254.383 257.423 247.913C256.717 247.1 255.544 248.284 256.244 249.092C262.277 256.053 271.112 256.944 279.041 260.7C286.172 264.079 293.076 265.625 300.977 264.315C302.531 264.056 304.088 263.875 305.659 263.759C308.008 263.293 308.645 264.823 307.577 268.348C306.484 268.635 305.385 268.891 304.279 269.116C297.399 270.629 291.019 270.861 284.176 268.771C273.731 265.579 260.507 257.857 253.756 249.164C253.097 248.316 251.927 249.504 252.577 250.341Z" fill="#161316"/>
<path d="M262.804 257.256C263.411 256.458 263.917 255.593 264.471 254.756C265.064 253.856 263.62 253.022 263.029 253.916C262.479 254.752 261.972 255.617 261.363 256.416C260.713 257.272 262.161 258.1 262.804 257.256Z" fill="#161316"/>
<path d="M275.22 265.173C276.206 263.277 277.134 261.341 277.804 259.308C278.14 258.284 276.53 257.849 276.196 258.865C275.572 260.762 274.701 262.562 273.78 264.333C273.285 265.284 274.722 266.128 275.22 265.173Z" fill="#161316"/>
<path d="M288.751 264.503C288.767 266.451 287.956 268.227 287.613 270.115C287.423 271.166 289.028 271.615 289.22 270.558C289.589 268.519 290.435 266.61 290.417 264.503C290.408 263.428 288.741 263.428 288.751 264.503Z" fill="#161316"/>
<path d="M289.751 269.086C290.444 269.156 291.137 269.168 291.833 269.169C292.908 269.169 292.908 267.502 291.833 267.502C291.137 267.501 290.444 267.489 289.751 267.42C288.681 267.312 288.692 268.98 289.751 269.086Z" fill="#161316"/>
<path d="M290.75 266.753C291.341 266.708 291.912 266.886 292.5 266.836C293.563 266.745 293.572 265.078 292.5 265.169C291.912 265.22 291.341 265.041 290.75 265.085C289.685 265.166 289.677 266.833 290.75 266.753Z" fill="#161316"/>
<path d="M275.861 264.389C276.419 264.552 276.972 264.726 277.528 264.889C278.563 265.192 279.001 263.582 277.972 263.282C277.415 263.121 276.861 262.945 276.305 262.782C275.271 262.481 274.832 264.09 275.861 264.389Z" fill="#161316"/>
<path d="M276.747 262.223C277.468 262.584 278.193 262.931 278.945 263.223C279.948 263.613 280.379 262 279.388 261.616C278.771 261.376 278.18 261.079 277.587 260.784C276.629 260.305 275.784 261.741 276.747 262.223Z" fill="#161316"/>
<path d="M263.08 257.139C263.797 257.557 264.585 257.777 265.361 258.056C266.374 258.421 266.808 256.811 265.805 256.449C265.164 256.219 264.513 256.045 263.92 255.7C262.989 255.157 262.15 256.599 263.08 257.139Z" fill="#161316"/>
<path d="M298.584 264.92C298.727 266.697 298.595 268.473 298.584 270.253C298.576 271.328 300.243 271.326 300.251 270.253C300.261 268.473 300.393 266.697 300.251 264.92C300.164 263.856 298.496 263.846 298.584 264.92Z" fill="#161316"/>
<path d="M191.862 186.89C194.406 197.098 194.29 207.529 192.688 217.874C191.898 222.965 189.138 230.487 190.974 235.557C191.337 236.559 192.948 236.127 192.581 235.114C191.337 231.675 192.844 225.867 193.47 222.557C194.173 218.835 194.797 215.173 195.188 211.405C196.05 203.063 195.496 194.578 193.47 186.447C193.21 185.405 191.604 185.847 191.862 186.89Z" fill="#161316"/>
<path d="M218.056 189.447C219.18 199.589 212.096 208.492 212.945 218.78C213.032 219.844 214.7 219.852 214.612 218.78C213.763 208.492 220.85 199.631 219.722 189.447C219.605 188.391 217.937 188.38 218.056 189.447Z" fill="#161316"/>
<path d="M245.056 187.557C244.513 198.275 237.031 208.39 231.229 217.106C227.489 222.723 223.085 229.919 225.196 236.89C225.507 237.917 227.116 237.478 226.804 236.447C224.071 227.419 233.164 217.71 237.175 210.281C241.384 202.483 246.253 196.818 246.723 187.557C246.777 186.482 245.111 186.487 245.056 187.557Z" fill="#161316"/>
<path d="M156.974 212.668C157.653 217.381 158.242 222.03 159.884 226.526C161.049 229.716 162.284 233.562 164.058 236.422C164.624 237.334 166.065 236.498 165.497 235.582C163.626 232.564 162.154 227.898 160.945 224.588C159.513 220.665 159.172 216.332 158.581 212.225C158.429 211.165 156.822 211.617 156.974 212.668Z" fill="#161316"/>
<path d="M153.753 283.171C162.928 276.873 167.668 265.205 167.944 254.336C167.972 253.261 166.305 253.264 166.277 254.336C166.017 264.583 161.582 275.781 152.913 281.731C152.032 282.335 152.865 283.78 153.753 283.171Z" fill="#161316"/>
<path d="M182.723 253.002C182.196 261.972 182.513 270.641 181.085 279.561C180.917 280.612 182.523 281.064 182.692 280.004C184.141 270.957 183.855 262.112 184.389 253.002C184.452 251.928 182.784 251.934 182.723 253.002Z" fill="#161316"/>
<path d="M200.833 254.002C201.503 265.61 201.652 277.998 210.3 286.817C211.053 287.585 212.232 286.406 211.479 285.638C203.149 277.145 203.141 265.139 202.5 254.002C202.439 252.934 200.772 252.927 200.833 254.002Z" fill="#161316"/>
<path d="M220.863 255.557C221.411 259.494 220.992 263.79 223.392 267.201C224.005 268.073 225.452 267.241 224.832 266.36C222.545 263.113 222.993 258.876 222.471 255.114C222.323 254.054 220.717 254.506 220.863 255.557Z" fill="#161316"/>
<path d="M236.529 254.002C238.547 262.816 242.911 271.13 248.856 277.926C249.565 278.738 250.74 277.554 250.035 276.748C244.276 270.167 240.088 262.088 238.137 253.559C237.897 252.512 236.291 252.956 236.529 254.002Z" fill="#161316"/>
<path d="M212.376 361.807C210.828 357.7 208.327 352.792 204.348 348.36C225.155 348.654 247.188 348.779 251.261 348.408C251.147 346.466 250.988 341.627 250.197 337.122C243.609 336.675 202.121 336.283 178.903 336.232C176.015 335.976 172.872 335.98 169.505 336.234C168.291 336.239 167.224 336.246 166.333 336.254C166.116 338.368 166.317 345.542 166.743 347.507C168.708 347.61 172.049 347.719 176.293 347.828C183.196 350.042 192.611 354.287 197.011 361.731C181.151 361.651 167.635 361.568 166.333 361.399C166.116 363.514 166.317 370.688 166.743 372.652C171.605 372.906 184.856 373.206 199.499 373.432C199.124 387.927 190.584 393.715 182.195 395.972C182.195 395.972 176.852 397.064 166.508 397.316L218.227 468.944L232.644 462.34L189.744 405.902C201.581 401.708 213.645 392.738 214.697 373.636C231.96 373.826 247.863 373.862 251.261 373.554C251.147 371.61 250.988 366.77 250.197 362.266C246.552 362.019 229.901 361.9 212.376 361.807Z" fill="#161316"/>
<path d="M86.6106 432.117C86.4853 439.005 89.3719 443.136 95.4693 446.17C99.1333 447.994 103.991 446.928 107.859 448.016C110.336 448.713 112.631 453.33 114.529 455.153C123.559 463.817 139.557 470.432 148.923 458.928C149.595 458.101 148.423 456.916 147.744 457.749C137.868 469.881 119.568 460.28 112.112 449.948C110.259 447.378 110.041 446.898 106.777 445.98C102.708 444.836 98.8706 446.006 94.8013 443.978C89.9133 441.546 88.1826 437.353 88.2773 432.117C88.2973 431.041 86.6306 431.044 86.6106 432.117Z" fill="#161316"/>
<path d="M106.28 372.092C108.007 374.705 110.02 376.753 113.147 377.484C116.3 378.221 119.807 377.433 123 377.395C124.075 377.381 124.076 375.715 123 375.728C120.432 375.759 117.876 376.075 115.307 376.049C111.833 376.016 109.564 374.043 107.72 371.251C107.131 370.36 105.687 371.193 106.28 372.092Z" fill="#161316"/>
<path d="M256.557 472.919C262.305 475.14 267.839 476.255 273.888 474.697C279.413 473.274 282.379 467.406 287.74 465.622C292.132 464.159 297.239 466.455 301.475 464.195C306.796 461.359 310.683 456.21 313.053 450.758C313.476 449.783 312.041 448.934 311.613 449.917C309.251 455.351 305.225 461.097 299.437 463.173C295.839 464.463 291.115 463.438 287.297 464.015C284.123 464.494 281.453 467.421 279.211 469.434C272.629 475.342 264.613 474.253 257 471.313C255.996 470.925 255.565 472.537 256.557 472.919Z" fill="#161316"/>
<path d="M272.112 412.031C281.232 415.184 292.281 413.306 294.471 402.56C294.684 401.511 293.079 401.064 292.863 402.118C290.845 412.024 280.791 413.271 272.555 410.424C271.536 410.074 271.103 411.683 272.112 412.031Z" fill="#161316"/>
<path d="M218.58 315.059C222.115 317.169 225.281 318.285 229.291 316.869C233.999 315.209 236.528 311.441 242.041 311.669C249.968 311.996 255.92 314.417 257.583 304.339C257.755 303.288 256.149 302.837 255.975 303.896C254.116 315.18 246.249 308.524 239.124 310.084C231.331 311.795 228.143 318.828 219.42 313.619C218.496 313.067 217.657 314.508 218.58 315.059Z" fill="#161316"/>
<path d="M160.803 298.169C165.133 300.074 169.559 301.707 174.087 299.502C175.053 299.03 174.208 297.594 173.247 298.062C169.336 299.967 165.337 298.355 161.643 296.729C160.669 296.301 159.82 297.737 160.803 298.169Z" fill="#161316"/>
<path d="M350.556 182.78C327.444 186.78 314.111 210.335 322.556 232.113C330.111 251.669 354.556 260.559 373.667 252.559C388.777 245.891 397.667 228.113 395.889 212.113C393.667 193.891 373.667 179.224 350.556 182.78Z" fill="white"/>
<path d="M350.335 181.976C331.152 185.761 316.359 203.643 319.523 223.695C322.901 245.104 342.68 258.197 363.769 256.012C385.073 253.805 398.469 232.367 396.723 212.113C394.825 190.099 369.875 179.408 350.556 181.947C349.507 182.084 349.492 183.753 350.556 183.613C369.603 181.111 390.601 190.573 394.844 210.736C399.223 231.551 382.44 252.412 362.077 254.523C342.999 256.499 325.259 243.62 321.403 224.98C317.323 205.26 331.913 187.305 350.777 183.584C351.832 183.376 351.384 181.769 350.335 181.976Z" fill="#161316"/>
<path d="M360.943 210.821C360.481 209.598 359.737 208.137 358.552 206.817C364.748 206.905 371.307 206.942 372.52 206.832C372.485 206.253 372.439 204.812 372.203 203.472C370.243 203.338 357.889 203.222 350.976 203.206C350.117 203.13 349.181 203.132 348.179 203.206C347.817 203.208 347.5 203.21 347.235 203.213C347.169 203.842 347.231 205.978 347.357 206.564C347.941 206.594 348.936 206.626 350.199 206.66C352.255 207.318 355.059 208.582 356.368 210.798C351.645 210.774 347.623 210.75 347.235 210.698C347.169 211.329 347.231 213.465 347.357 214.05C348.805 214.125 352.751 214.214 357.108 214.282C356.997 218.597 354.455 220.321 351.957 220.993C351.957 220.993 350.365 221.317 347.287 221.393L362.685 242.72L366.977 240.753L354.204 223.949C357.729 222.7 361.32 220.029 361.635 214.342C366.773 214.398 371.508 214.41 372.52 214.318C372.485 213.74 372.439 212.298 372.203 210.957C371.119 210.884 366.16 210.849 360.943 210.821Z" fill="#161316"/>
<path d="M351.7 188.545C335.959 191.738 323.625 206.426 326.411 222.993C329.344 240.446 345.193 250.979 362.444 249.437C380.167 247.851 391.184 230.051 389.836 213.342C388.372 195.195 367.748 186.511 351.921 188.515C350.871 188.647 350.859 190.317 351.921 190.182C366.929 188.282 382.953 195.069 387.591 210.418C392.499 226.658 379.64 244.413 363.935 247.553C347.819 250.777 331.897 239.975 328.308 224.283C324.599 208.055 336.708 193.283 352.143 190.151C353.196 189.938 352.751 188.333 351.7 188.545Z" fill="#161316"/>
<path d="M195.921 69.4401C172.809 73.4401 159.476 96.9961 167.921 118.773C175.476 138.329 199.921 147.219 219.032 139.219C234.143 132.552 243.032 114.773 241.254 98.7735C239.032 80.5521 219.032 65.8841 195.921 69.4401Z" fill="white"/>
<path d="M195.7 68.6359C176.518 72.4212 161.724 90.3026 164.888 110.355C168.266 131.763 188.045 144.859 209.136 142.672C230.439 140.465 243.834 119.027 242.088 98.7732C240.192 76.7586 215.241 66.0679 195.921 68.6066C194.872 68.7452 194.858 70.4132 195.921 70.2732C214.969 67.7706 235.968 77.2332 240.209 97.3959C244.588 118.211 227.805 139.072 207.443 141.181C188.364 143.159 170.625 130.28 166.768 111.64C162.689 91.9199 177.279 73.9666 196.143 70.2426C197.197 70.0359 196.75 68.4292 195.7 68.6359Z" fill="#161316"/>
<path d="M206.308 97.4816C205.848 96.2589 205.103 94.7976 203.917 93.4776C210.113 93.5656 216.673 93.6029 217.885 93.4922C217.852 92.9136 217.805 91.4722 217.569 90.1322C215.608 89.9989 203.255 89.8829 196.343 89.8669C195.483 89.7909 194.547 89.7922 193.544 89.8669C193.184 89.8682 192.865 89.8709 192.6 89.8736C192.535 90.5029 192.596 92.6389 192.723 93.2242C193.307 93.2549 194.303 93.2869 195.565 93.3202C197.621 93.9789 200.424 95.2429 201.735 97.4589C197.012 97.4349 192.988 97.4109 192.6 97.3602C192.535 97.9896 192.596 100.126 192.723 100.711C194.171 100.786 198.116 100.875 202.473 100.943C202.363 105.258 199.82 106.982 197.323 107.654C197.323 107.654 195.732 107.978 192.652 108.054L208.051 129.379L212.344 127.414L199.571 110.61C203.095 109.362 206.687 106.691 207 101.003C212.139 101.059 216.873 101.071 217.885 100.979C217.852 100.4 217.805 98.9589 217.569 97.6175C216.484 97.5442 211.527 97.5096 206.308 97.4816Z" fill="#161316"/>
<path d="M197.067 75.2049C181.324 78.3983 168.991 93.0862 171.776 109.653C174.709 127.106 190.559 137.64 207.809 136.097C225.532 134.512 236.549 116.712 235.201 100.002C233.739 81.8556 213.113 73.1716 197.288 75.1756C196.237 75.3076 196.224 76.9769 197.288 76.8423C212.296 74.9423 228.319 81.7289 232.957 97.0796C237.864 113.318 225.007 131.072 209.301 134.213C193.185 137.437 177.263 126.636 173.675 110.944C169.965 94.7156 182.075 79.9436 197.509 76.8116C198.563 76.5983 198.116 74.9929 197.067 75.2049Z" fill="#161316"/>
<path d="M49.9466 183.628C26.8346 187.628 13.5012 211.184 21.9466 232.961C29.5012 252.517 53.9466 261.406 73.0572 253.406C88.1679 246.74 97.0572 228.961 95.2799 212.961C93.0572 194.74 73.0572 180.072 49.9466 183.628Z" fill="white"/>
<path d="M49.7252 182.826C30.5426 186.611 15.7492 204.491 18.9132 224.543C22.2919 245.951 42.0706 259.047 63.1599 256.862C84.4639 254.654 97.8599 233.215 96.1132 212.962C94.2159 190.947 69.2652 180.256 49.9466 182.795C48.8972 182.934 48.8826 184.602 49.9466 184.462C68.9932 181.959 89.9919 191.422 94.2346 211.584C98.6132 232.399 81.8306 253.26 61.4679 255.37C42.3892 257.347 24.6492 244.47 20.7932 225.83C16.7132 206.11 31.3039 188.155 50.1679 184.432C51.2226 184.224 50.7746 182.618 49.7252 182.826Z" fill="#161316"/>
<path d="M60.3333 211.669C59.872 210.446 59.128 208.985 57.9426 207.666C64.1386 207.753 70.6973 207.79 71.9106 207.68C71.876 207.101 71.8293 205.661 71.5933 204.32C69.6333 204.186 57.28 204.07 50.3667 204.054C49.508 203.978 48.572 203.98 47.5693 204.056C47.208 204.056 46.8906 204.058 46.6253 204.061C46.56 204.692 46.6213 206.826 46.748 207.412C47.332 207.442 48.3267 207.474 49.5893 207.508C51.6453 208.166 54.4493 209.43 55.7586 211.646C51.036 211.622 47.0133 211.598 46.6253 211.548C46.56 212.177 46.6213 214.313 46.748 214.898C48.1947 214.973 52.14 215.062 56.4987 215.13C56.388 219.445 53.8453 221.169 51.348 221.841C51.348 221.841 49.756 222.166 46.6773 222.241L62.076 243.566L66.368 241.601L53.5946 224.797C57.12 223.549 60.7106 220.878 61.0253 215.19C66.164 215.248 70.8986 215.258 71.9106 215.166C71.876 214.588 71.8293 213.146 71.5933 211.805C70.5093 211.732 65.5507 211.697 60.3333 211.669Z" fill="#161316"/>
<path d="M51.0906 189.393C35.3493 192.587 23.0159 207.275 25.8013 223.841C28.7346 241.296 44.5839 251.828 61.8346 250.285C79.5573 248.7 90.5746 230.9 89.2266 214.191C87.7626 196.044 67.1386 187.361 51.3119 189.364C50.2613 189.497 50.2493 191.165 51.3119 191.031C66.3199 189.131 82.3439 195.917 86.9813 211.268C91.8893 227.507 79.0306 245.261 63.3253 248.401C47.2093 251.625 31.2879 240.825 27.6986 225.132C23.9893 208.904 36.0986 194.132 51.5333 191C52.5866 190.787 52.14 189.181 51.0906 189.393Z" fill="#161316"/>
<path d="M6.83325 125.87C6.83325 131.426 6.83325 136.982 6.83325 142.537C6.83325 143.611 8.49992 143.611 8.49992 142.537C8.49992 136.982 8.49992 131.426 8.49992 125.87C8.49992 124.795 6.83325 124.795 6.83325 125.87Z" fill="white"/>
<path d="M1.44394 134.925C5.51861 134.925 9.59194 134.925 13.6666 134.925C14.7413 134.925 14.7413 133.258 13.6666 133.258C9.59194 133.258 5.51861 133.258 1.44394 133.258C0.369273 133.258 0.369273 134.925 1.44394 134.925Z" fill="white"/>
<path d="M4.18928 131.793C6.41194 134.016 8.63328 136.239 10.8559 138.46C11.6159 139.221 12.7946 138.043 12.0333 137.281C9.81194 135.06 7.58927 132.837 5.3666 130.615C4.6066 129.855 3.42794 131.033 4.18928 131.793Z" fill="white"/>
<path d="M4.47718 138.014C6.74651 135.544 9.21319 133.269 11.5892 130.904C12.3519 130.145 11.1732 128.968 10.4105 129.725C8.03451 132.09 5.56785 134.365 3.29985 136.836C2.57452 137.626 3.74918 138.808 4.47718 138.014Z" fill="white"/>
<path d="M402.833 329.854C402.833 335.41 402.833 340.964 402.833 346.52C402.833 347.594 404.5 347.594 404.5 346.52C404.5 340.964 404.5 335.41 404.5 329.854C404.5 328.779 402.833 328.779 402.833 329.854Z" fill="white"/>
<path d="M397.445 338.908C401.52 338.908 405.592 338.908 409.666 338.908C410.741 338.908 410.741 337.242 409.666 337.242C405.592 337.242 401.52 337.242 397.445 337.242C396.37 337.242 396.37 338.908 397.445 338.908Z" fill="white"/>
<path d="M400.189 335.776C402.412 337.998 404.635 340.22 406.856 342.443C407.617 343.203 408.796 342.026 408.035 341.263C405.812 339.042 403.589 336.819 401.368 334.596C400.607 333.836 399.428 335.015 400.189 335.776Z" fill="white"/>
<path d="M400.479 341.997C402.748 339.526 405.213 337.25 407.589 334.886C408.352 334.128 407.173 332.949 406.411 333.706C404.035 336.073 401.569 338.348 399.3 340.817C398.575 341.608 399.751 342.79 400.479 341.997Z" fill="white"/>
<path d="M384.951 71.9062C384.951 83.3636 384.951 94.8222 384.951 106.281C384.951 107.356 386.617 107.356 386.617 106.281C386.617 94.8222 386.617 83.3636 386.617 71.9062C386.617 70.8302 384.951 70.8302 384.951 71.9062Z" fill="white"/>
<path d="M372.952 89.6963C381.355 89.6963 389.756 89.6963 398.159 89.6963C399.233 89.6963 399.233 88.0296 398.159 88.0296C389.756 88.0296 381.355 88.0296 372.952 88.0296C371.877 88.0296 371.877 89.6963 372.952 89.6963Z" fill="white"/>
<path d="M379.237 83.4963C383.821 88.0789 388.405 92.6629 392.987 97.2456C393.749 98.0056 394.927 96.8283 394.167 96.0669C389.584 91.4829 385 86.9003 380.417 82.3176C379.655 81.5563 378.476 82.7349 379.237 83.4963Z" fill="white"/>
<path d="M378.584 96.327C383.261 91.231 388.348 86.5403 393.249 81.6617C394.011 80.903 392.832 79.7243 392.069 80.483C387.169 85.3617 382.084 90.0537 377.404 95.1483C376.679 95.939 377.855 97.1203 378.584 96.327Z" fill="white"/>
<path d="M139.617 1.24022C139.617 12.6976 139.617 24.1562 139.617 35.6149C139.617 36.6896 141.284 36.6896 141.284 35.6149C141.284 24.1562 141.284 12.6976 141.284 1.24022C141.284 0.164224 139.617 0.164224 139.617 1.24022Z" fill="white"/>
<path d="M127.619 19.0293C136.021 19.0293 144.422 19.0293 152.825 19.0293C153.9 19.0293 153.9 17.3626 152.825 17.3626C144.422 17.3626 136.021 17.3626 127.619 17.3626C126.544 17.3626 126.544 19.0293 127.619 19.0293Z" fill="white"/>
<path d="M133.904 12.828C138.488 17.412 143.071 21.9946 147.655 26.5786C148.415 27.3386 149.593 26.1613 148.833 25.4C144.251 20.816 139.667 16.2333 135.083 11.6506C134.323 10.8906 133.144 12.068 133.904 12.828Z" fill="white"/>
<path d="M133.249 25.66C137.928 20.564 143.015 15.8733 147.915 10.9946C148.677 10.236 147.499 9.05733 146.736 9.81599C141.836 14.6947 136.751 19.3853 132.071 24.4813C131.345 25.272 132.521 26.4533 133.249 25.66Z" fill="white"/>
<path d="M28.6252 335.797C28.6252 347.254 28.6252 358.713 28.6252 370.172C28.6252 371.246 30.2919 371.246 30.2919 370.172C30.2919 358.713 30.2919 347.254 30.2919 335.797C30.2919 334.722 28.6252 334.722 28.6252 335.797Z" fill="white"/>
<path d="M16.6266 353.585C25.0279 353.585 33.4306 353.585 41.8332 353.585C42.9079 353.585 42.9079 351.918 41.8332 351.918C33.4306 351.918 25.0279 351.918 16.6266 351.918C15.5519 351.918 15.5519 353.585 16.6266 353.585Z" fill="white"/>
<path d="M22.912 347.387C27.496 351.969 32.0787 356.553 36.6627 361.137C37.4227 361.897 38.6013 360.719 37.84 359.957C33.2573 355.373 28.6747 350.791 24.0907 346.207C23.3307 345.447 22.1507 346.625 22.912 347.387Z" fill="white"/>
<path d="M22.2573 360.217C26.9373 355.122 32.0227 350.429 36.9227 345.553C37.6853 344.794 36.5066 343.615 35.744 344.373C30.844 349.25 25.7586 353.943 21.0786 359.037C20.3533 359.827 21.528 361.01 22.2573 360.217Z" fill="white"/>
<path d="M273.936 139.514C273.936 145.901 273.936 152.286 273.936 158.672C273.936 159.748 275.603 159.748 275.603 158.672C275.603 152.286 275.603 145.901 275.603 139.514C275.603 138.44 273.936 138.44 273.936 139.514Z" fill="white"/>
<path d="M267.619 149.799C272.301 149.799 276.984 149.799 281.667 149.799C282.741 149.799 282.741 148.132 281.667 148.132C276.984 148.132 272.301 148.132 267.619 148.132C266.544 148.132 266.544 149.799 267.619 149.799Z" fill="white"/>
<path d="M270.861 146.235C273.416 148.789 275.97 151.344 278.524 153.897C279.285 154.659 280.464 153.48 279.702 152.72C277.148 150.165 274.593 147.611 272.04 145.056C271.278 144.296 270.1 145.473 270.861 146.235Z" fill="white"/>
<path d="M271.018 153.386C273.625 150.547 276.46 147.932 279.192 145.214C279.953 144.454 278.774 143.276 278.012 144.035C275.281 146.752 272.446 149.368 269.838 152.207C269.113 152.998 270.289 154.179 271.018 153.386Z" fill="white"/>
</svg>
